<?xml version="1.0" encoding="utf-8"?>
<!-- Generator: Adobe Illustrator 19.0.0, SVG Export Plug-In . SVG Version: 6.00 Build 0)  -->
<svg version="1.1" id="Layer_1" xmlns:x="&ns_extend;" xmlns:i="&ns_ai;" xmlns:graph="&ns_graphs;"
	 xmlns="http://www.w3.org/2000/svg" xmlns:xlink="http://www.w3.org/1999/xlink" x="0px" y="0px" viewBox="0 0 960 480"
	 style="enable-background:new 0 0 960 480;" xml:space="preserve">
<style type="text/css">
	.st0{fill:#FFFFFF;}
	.st1{fill-rule:evenodd;clip-rule:evenodd;fill:#004993;}
	.st2{fill-rule:evenodd;clip-rule:evenodd;fill:#FFD400;}
	.st3{fill-rule:evenodd;clip-rule:evenodd;fill:#E10714;}
	.st4{fill-rule:evenodd;clip-rule:evenodd;fill:#1D1D1B;}
	.st5{fill:#FFD400;}
	.st6{fill:none;stroke:#FFFFFF;stroke-width:4;stroke-miterlimit:10;}
</style>
<metadata>
	<sfw  xmlns="&ns_sfw;">
		<slices></slices>
		<sliceSourceBounds  width="930.1" height="334.5" y="-446.6" x="14.9" bottomLeftOrigin="true"></sliceSourceBounds>
	</sfw>
</metadata>
<g id="XMLID_1022_">
	<g id="XMLID_1249_">
		<g id="XMLID_1289_">
			<g id="XMLID_1290_">
				<path id="XMLID_1305_" class="st0" d="M496.5,198.3c0-2.6,2-4.6,4.6-4.6H516c4.8,0,8.6,1.3,11,3.7c1.9,1.9,2.9,4.3,2.9,7.1v0.1
					c0,4.7-2.5,7.4-5.5,9.1c4.9,1.9,7.9,4.7,7.9,10.3v0.1c0,7.7-6.2,11.5-15.7,11.5h-15.3c-2.6,0-4.6-2-4.6-4.6V198.3z M514.1,210.7
					c4.1,0,6.6-1.3,6.6-4.4v-0.1c0-2.8-2.2-4.3-6.1-4.3h-9.1v8.9H514.1z M516.5,227.6c4.1,0,6.5-1.4,6.5-4.6v-0.1
					c0-2.8-2.1-4.6-6.8-4.6h-10.7v9.2H516.5z"/>
				<path id="XMLID_1302_" class="st0" d="M536.3,208.3v-0.2c0-15.7,12.4-28.5,29.4-28.5c17,0,29.2,12.7,29.2,28.4v0.2
					c0,15.7-12.4,28.5-29.4,28.5C548.5,236.7,536.3,224,536.3,208.3z M582.2,208.3v-0.2c0-9.5-6.9-17.3-16.7-17.3
					c-9.8,0-16.6,7.7-16.6,17.2v0.2c0,9.5,6.9,17.3,16.7,17.3C575.5,225.5,582.2,217.7,582.2,208.3z"/>
				<path id="XMLID_1300_" class="st0" d="M600.8,201.1v-0.2c0-19.8,15.4-36,36.5-36c10.5,0,17.5,2.4,23.8,6.8
					c1.5,1.1,3.2,3.2,3.2,6.2c0,4.2-3.4,7.6-7.5,7.6c-2.2,0-3.6-0.8-4.7-1.6c-4.2-3-8.6-4.8-15.2-4.8c-11.1,0-20,9.8-20,21.7v0.2
					c0,12.7,8.7,22.1,21.1,22.1c5.6,0,10.5-1.4,14.4-4.2v-9.9H642c-3.7,0-6.7-2.9-6.7-6.6c0-3.7,3-6.7,6.7-6.7h17.5
					c4.3,0,7.7,3.4,7.7,7.6v16.9c0,4.5-1.7,7.6-5.4,9.7c-5.7,3.5-13.9,7-24.4,7C615.7,236.9,600.8,221.7,600.8,201.1z"/>
				<path id="XMLID_1297_" class="st0" d="M671.5,193.4v-0.2c0-24.2,19.1-44.1,45.4-44.1c26.3,0,45.1,19.6,45.1,43.8v0.2
					c0,24.2-19.1,44-45.4,44C690.3,237.2,671.5,217.6,671.5,193.4z M742.4,193.4v-0.2c0-14.6-10.7-26.8-25.8-26.8
					c-15.1,0-25.6,11.9-25.6,26.5v0.2c0,14.6,10.7,26.8,25.8,26.8C732,219.9,742.4,208,742.4,193.4z"/>
				<path id="XMLID_1295_" class="st0" d="M784.4,154.4h-21.6c-5.7,0-10.3-4.7-10.3-10.3c0-5.7,4.7-10.3,10.3-10.3h65.5
					c5.7,0,10.3,4.7,10.3,10.3c0,5.7-4.7,10.3-10.3,10.3h-21.6v70.9c0,6.3-5,11.2-11.2,11.2c-6.3,0-11.2-5-11.2-11.2V154.4z"/>
				<path id="XMLID_1291_" class="st0" d="M826.4,218.7l41.8-94.4c2.9-6.5,8.2-10.5,15.4-10.5h1.5c7.2,0,12.3,3.9,15.3,10.5
					l41.8,94.4c0.9,1.9,1.4,3.6,1.4,5.3c0,7-5.5,12.7-12.5,12.7c-6.2,0-10.3-3.6-12.7-9.1l-8.1-18.9h-52.8l-8.4,19.7
					c-2.2,5.1-6.7,8.2-12.2,8.2c-6.9,0-12.2-5.5-12.2-12.3C824.9,222.5,825.6,220.6,826.4,218.7z M900.6,185.5L884,145.9l-16.6,39.6
					H900.6z M877,101.2c0-1.5,0.9-3.2,1.7-4.6l9.4-14.7c2.2-3.6,5.5-5.8,9.8-5.8c6.3,0,14.6,3.9,14.6,7.9c0,2.4-1.4,4.3-3.4,6.2
					l-10.6,9.9c-5,4.6-9.1,5.7-14.9,5.7C879.7,105.6,877,103.9,877,101.2z"/>
			</g>
		</g>
		<g id="XMLID_1276_">
			<path id="XMLID_1287_" class="st0" d="M496.5,262.4c0-5.5,4.3-9.8,9.8-9.8h2.2c4.2,0,7.1,2.2,8.9,5.1l23.6,38.4l23.7-38.6
				c2-3.3,4.8-4.9,8.8-4.9h2.2c5.5,0,9.8,4.3,9.8,9.8v70.5c0,5.5-4.3,9.8-9.8,9.8c-5.3,0-9.6-4.4-9.6-9.8v-44.3L548.7,315
				c-2,3-4.6,5-8.1,5c-3.6,0-6.1-1.9-8.1-5l-16.9-26v44.2c0,5.3-4.3,9.5-9.6,9.5c-5.3,0-9.5-4.2-9.5-9.5V262.4z"/>
			<path id="XMLID_1285_" class="st0" d="M606.6,332.2v-69.3c0-5.5,4.3-9.8,9.8-9.8h49.2c4.8,0,8.8,3.9,8.8,8.8
				c0,4.8-3.9,8.6-8.8,8.6H626v18h33.9c4.8,0,8.7,3.9,8.7,8.8c0,4.8-3.9,8.6-8.7,8.6H626v18.6h40.2c4.8,0,8.8,3.9,8.8,8.7
				c0,4.8-3.9,8.6-8.8,8.6h-49.9C610.9,341.9,606.6,337.6,606.6,332.2z"/>
			<path id="XMLID_1283_" class="st0" d="M688.3,335.5c-2-1.5-3.7-4.5-3.7-7.5c0-5.2,4.1-9.4,9.3-9.4c2.4,0,3.9,0.6,5.8,2
				c3.9,2.9,7.4,4.4,11.8,4.4c7.6,0,12.2-4.4,12.2-14.7v-48.2c0-5.5,4.3-9.8,9.8-9.8c5.5,0,9.8,4.3,9.8,9.8v49.1
				c0,10.5-3,18.4-8.4,23.7c-5.5,5.4-13.4,8.2-23.1,8.2C701.6,343.2,693.9,339.8,688.3,335.5z"/>
			<path id="XMLID_1280_" class="st0" d="M759.2,297.8v-0.3c0-25.3,19.9-45.9,47.3-45.9c27.4,0,47.1,20.4,47.1,45.7v0.3
				c0,25.3-19.9,45.9-47.3,45.9C778.9,343.5,759.2,323,759.2,297.8z M833.2,297.8v-0.3c0-15.2-11.2-27.9-26.9-27.9
				c-15.7,0-26.6,12.4-26.6,27.7v0.3c0,15.2,11.2,27.9,26.9,27.9C822.3,325.4,833.2,313,833.2,297.8z"/>
			<path id="XMLID_1277_" class="st0" d="M871,262.9c0-5.5,4.3-9.8,9.8-9.8h30.8c11.3,0,20,3.2,25.9,9c5,4.9,7.6,11.9,7.6,20.3v0.2
				c0,14-7,22.6-17.8,27l13.6,16.5c1.9,2.4,3.2,4.4,3.2,7.5c0,5.5-4.6,9-9.3,9c-4.4,0-7.4-2.1-9.6-5.1l-19-24.1h-15.6v19.4
				c0,5.5-4.3,9.8-9.8,9.8c-5.5,0-9.8-4.3-9.8-9.8V262.9z M910.3,296.3c9.5,0,15-5.1,15-12.6v-0.3c0-8.4-5.8-12.7-15.3-12.7h-19.4
				v25.5H910.3z"/>
		</g>
		<g id="XMLID_1250_">
			<path id="XMLID_1273_" class="st0" d="M496.5,363.6c0-2.8,2.2-5.1,5.1-5.1h13.8c11,0,17.7,6.5,17.7,16v0.1
				c0,10.7-8.3,16.2-18.7,16.2h-7.7v9.2c0,2.8-2.2,5.1-5.1,5.1c-2.8,0-5.1-2.3-5.1-5.1V363.6z M514.7,381.9c5.1,0,8.1-3,8.1-7v-0.1
				c0-4.6-3.2-7-8.3-7h-7.9v14.1H514.7z"/>
			<path id="XMLID_1270_" class="st0" d="M534.7,398.2l16.1-36.4c1.1-2.5,3.2-4,5.9-4h0.6c2.8,0,4.8,1.5,5.9,4l16.1,36.4
				c0.3,0.7,0.5,1.4,0.5,2.1c0,2.7-2.1,4.9-4.8,4.9c-2.4,0-4-1.4-4.9-3.5l-3.1-7.3h-20.4l-3.2,7.6c-0.9,2-2.6,3.2-4.7,3.2
				c-2.7,0-4.7-2.1-4.7-4.8C534.1,399.7,534.4,399,534.7,398.2z M563.3,385.4l-6.4-15.3l-6.4,15.3H563.3z"/>
			<path id="XMLID_1267_" class="st0" d="M587.9,363.6c0-2.8,2.2-5.1,5.1-5.1H609c5.9,0,10.4,1.7,13.5,4.7c2.6,2.6,4,6.2,4,10.6v0.1
				c0,7.3-3.6,11.8-9.2,14.1l7.1,8.6c1,1.2,1.7,2.3,1.7,3.9c0,2.8-2.4,4.7-4.8,4.7c-2.3,0-3.8-1.1-5-2.7l-9.9-12.5h-8.1v10.1
				c0,2.8-2.2,5.1-5.1,5.1c-2.8,0-5.1-2.3-5.1-5.1V363.6z M608.4,381c5,0,7.8-2.6,7.8-6.5v-0.1c0-4.4-3-6.6-8-6.6h-10.1V381H608.4z"
				/>
			<path id="XMLID_1264_" class="st0" d="M633.1,398.2l16.1-36.4c1.1-2.5,3.2-4,5.9-4h0.6c2.8,0,4.8,1.5,5.9,4l16.1,36.4
				c0.3,0.7,0.5,1.4,0.5,2.1c0,2.7-2.1,4.9-4.8,4.9c-2.4,0-4-1.4-4.9-3.5l-3.1-7.3h-20.3l-3.2,7.6c-0.9,2-2.6,3.2-4.7,3.2
				c-2.6,0-4.7-2.1-4.7-4.8C632.5,399.7,632.7,399,633.1,398.2z M661.7,385.4l-6.4-15.3l-6.4,15.3H661.7z"/>
			<path id="XMLID_1262_" class="st0" d="M716.8,367.9h-9.8c-2.6,0-4.7-2.1-4.7-4.7c0-2.6,2.1-4.7,4.7-4.7h29.7
				c2.6,0,4.7,2.1,4.7,4.7c0,2.6-2.1,4.7-4.7,4.7H727v32.2c0,2.8-2.2,5.1-5.1,5.1c-2.8,0-5.1-2.3-5.1-5.1V367.9z"/>
			<path id="XMLID_1259_" class="st0" d="M744.8,381.8v-0.1c0-13.1,10.4-23.9,24.6-23.9c14.3,0,24.5,10.6,24.5,23.8v0.1
				c0,13.1-10.4,23.9-24.6,23.9C755.1,405.6,744.8,394.9,744.8,381.8z M783.4,381.8v-0.1c0-7.9-5.8-14.5-14-14.5
				c-8.2,0-13.9,6.5-13.9,14.4v0.1c0,7.9,5.8,14.5,14,14.5C777.7,396.2,783.4,389.7,783.4,381.8z"/>
			<path id="XMLID_1256_" class="st0" d="M803,363.6c0-2.8,2.2-5.1,5.1-5.1h13c14.5,0,24.6,10,24.6,23v0.1c0,13-10,23.1-24.6,23.1
				h-13c-2.8,0-5.1-2.2-5.1-5.1V363.6z M821.1,395.6c8.3,0,13.9-5.6,13.9-13.8v-0.1c0-8.2-5.6-13.9-13.9-13.9h-7.9v27.9H821.1z"/>
			<path id="XMLID_1253_" class="st0" d="M852.7,381.8v-0.1c0-13.1,10.4-23.9,24.6-23.9c14.3,0,24.5,10.6,24.5,23.8v0.1
				c0,13.1-10.4,23.9-24.6,23.9C862.9,405.6,852.7,394.9,852.7,381.8z M891.2,381.8v-0.1c0-7.9-5.8-14.5-14-14.5
				c-8.2,0-13.9,6.5-13.9,14.4v0.1c0,7.9,5.8,14.5,14,14.5C885.5,396.2,891.2,389.7,891.2,381.8z"/>
			<path id="XMLID_1251_" class="st0" d="M909.6,399.9c-1.1-0.8-1.9-2.2-1.9-3.8c0-2.6,2.1-4.7,4.8-4.7c1.3,0,2.2,0.5,2.9,0.9
				c3.5,2.6,7.3,4.2,11.8,4.2c4.2,0,6.7-1.7,6.7-4.4V392c0-2.6-1.6-3.9-9.3-5.9c-9.3-2.4-15.3-5-15.3-14.1v-0.1
				c0-8.4,6.7-13.9,16.2-13.9c5.6,0,10.5,1.5,14.7,4.1c1.1,0.7,2.2,2,2.2,4c0,2.6-2.1,4.7-4.8,4.7c-1,0-1.8-0.3-2.6-0.7
				c-3.4-2-6.5-3.1-9.7-3.1c-3.9,0-6,1.8-6,4v0.1c0,3,2,4,10,6.1c9.4,2.4,14.7,5.8,14.7,13.9v0.1c0,9.2-7,14.3-17,14.3
				C920.9,405.4,914.8,403.6,909.6,399.9z"/>
		</g>
	</g>
	<rect id="XMLID_1248_" x="416.5" y="75.3" class="st0" width="5.9" height="329.8"/>
	<g id="XMLID_1023_">
		<g id="XMLID_1024_">
			<g id="XMLID_1066_">
				<g id="XMLID_1118_">
					<g id="XMLID_1243_">
						<g id="XMLID_1244_">
							<path id="XMLID_1245_" class="st0" d="M43.1,357.3h-6.2l-2.4-6.4H23.3l-2.3,6.4h-6l10.9-28h6L43.1,357.3z M32.6,346.1
								l-3.9-10.3L25,346.1H32.6z"/>
						</g>
					</g>
					<g id="XMLID_1240_">
						<g id="XMLID_1241_">
							<polygon id="XMLID_1242_" class="st0" points="44.6,357.3 44.6,329.5 50.3,329.5 50.3,352.5 64.3,352.5 64.3,357.3 							
								"/>
						</g>
					</g>
					<g id="XMLID_1237_">
						<g id="XMLID_1238_">
							<path id="XMLID_1239_" class="st0" d="M84.7,346.9l5.5,1.8c-0.8,3.1-2.2,5.3-4.2,6.9c-2,1.5-4.5,2.2-7.5,2.2
								c-3.7,0-6.8-1.3-9.2-3.8c-2.4-2.5-3.6-6-3.6-10.4c0-4.7,1.2-8.3,3.6-10.8c2.4-2.6,5.6-3.9,9.5-3.9c3.4,0,6.2,1,8.4,3
								c1.3,1.2,2.2,2.9,2.9,5.2l-5.6,1.3c-0.3-1.4-1-2.6-2.1-3.4c-1.1-0.9-2.3-1.3-3.8-1.3c-2.1,0-3.8,0.8-5.1,2.2
								c-1.3,1.5-1.9,3.9-1.9,7.2c0,3.5,0.7,6.1,1.9,7.6c1.3,1.5,2.9,2.3,5,2.3c1.5,0,2.8-0.5,3.9-1.4
								C83.4,350.5,84.2,349,84.7,346.9"/>
						</g>
					</g>
					<g id="XMLID_1232_">
						<g id="XMLID_1233_">
							<path id="XMLID_1234_" class="st0" d="M118.7,357.3h-6.2l-2.5-6.4H98.8l-2.3,6.4h-6l10.9-28h6L118.7,357.3z M108.2,346.1
								l-3.9-10.3l-3.8,10.3H108.2z"/>
						</g>
					</g>
					<g id="XMLID_1229_">
						<g id="XMLID_1230_">
							<polygon id="XMLID_1231_" class="st0" points="120.2,357.3 120.2,329.5 125.8,329.5 125.8,352.5 139.9,352.5 139.9,357.3 
															"/>
						</g>
					</g>
					<g id="XMLID_1224_">
						<g id="XMLID_1225_">
							<path id="XMLID_1226_" class="st0" d="M142.3,329.2h10.3c2.3,0,4.1,0.2,5.3,0.5c1.6,0.5,3.1,1.3,4.2,2.6
								c1.2,1.2,2.1,2.8,2.7,4.5c0.6,1.8,0.9,4,0.9,6.6c0,2.3-0.3,4.3-0.9,6c-0.7,2.1-1.7,3.7-3,5c-1,1-2.3,1.7-4,2.2
								c-1.2,0.4-2.9,0.6-5,0.6h-10.7V329.2z M147.9,334v18.5h4.2c1.6,0,2.7-0.1,3.4-0.3c0.9-0.2,1.7-0.6,2.3-1.1
								c0.6-0.6,1.1-1.5,1.5-2.7c0.4-1.3,0.6-3,0.6-5.1c0-2.2-0.2-3.8-0.6-5c-0.4-1.1-0.9-2.1-1.6-2.7c-0.7-0.6-1.6-1.1-2.6-1.3
								c-0.8-0.1-2.4-0.2-4.7-0.2H147.9z"/>
						</g>
					</g>
					<g id="XMLID_1219_">
						<g id="XMLID_1220_">
							<path id="XMLID_1221_" class="st0" d="M170.2,326.7l2.6-5.7h6l-5.2,5.7H170.2z M168.8,329.2h5.7v28h-5.7V329.2z"/>
						</g>
					</g>
					<g id="XMLID_1214_">
						<g id="XMLID_1215_">
							<path id="XMLID_1216_" class="st0" d="M203.5,357.3h-6.2l-2.4-6.4h-11.2l-2.3,6.4h-6l10.9-28h6L203.5,357.3z M193.1,346.1
								l-3.9-10.3l-3.8,10.3H193.1z"/>
						</g>
					</g>
					<g id="XMLID_1211_">
						<g id="XMLID_1212_">
							<polygon id="XMLID_1213_" class="st0" points="212.5,357.3 212.5,329.2 221,329.2 226.1,348.4 231.1,329.2 239.6,329.2 
								239.6,357.3 234.4,357.3 234.3,335.2 228.8,357.3 223.3,357.3 217.8,335.2 217.8,357.3 							"/>
						</g>
					</g>
					<g id="XMLID_1132_">
						<g id="XMLID_1133_">
							<path id="XMLID_1134_" class="st0" d="M268.9,357.3h-6.2l-2.4-6.4h-11.2l-2.3,6.4h-6l10.9-28h6.1L268.9,357.3z M258.5,346.1
								l-3.9-10.3l-3.8,10.3H258.5z"/>
						</g>
					</g>
					<g id="XMLID_1129_">
						<g id="XMLID_1130_">
							<polygon id="XMLID_1131_" class="st0" points="274,357.3 274,345.5 263.7,329.2 270.4,329.2 277,340.3 283.5,329.2 
								290,329.2 279.7,345.5 279.7,357.3 							"/>
						</g>
					</g>
					<g id="XMLID_1124_">
						<g id="XMLID_1125_">
							<path id="XMLID_1126_" class="st0" d="M290,343.4c0-2.9,0.4-5.3,1.3-7.2c0.7-1.4,1.5-2.7,2.6-3.8c1.1-1.1,2.4-2,3.6-2.5
								c1.7-0.7,3.8-1.1,6-1.1c4.1,0,7.4,1.3,9.9,3.8c2.5,2.6,3.7,6.1,3.7,10.7c0,4.5-1.2,8.1-3.7,10.6c-2.5,2.6-5.8,3.8-9.9,3.8
								c-4.2,0-7.5-1.3-10-3.8C291.2,351.4,290,347.9,290,343.4 M295.8,343.3c0,3.2,0.7,5.6,2.2,7.2c1.5,1.6,3.3,2.5,5.6,2.5
								c2.2,0,4.1-0.8,5.5-2.4c1.5-1.6,2.2-4.1,2.2-7.3c0-3.2-0.7-5.6-2.1-7.2c-1.4-1.6-3.3-2.4-5.6-2.4c-2.3,0-4.2,0.8-5.7,2.4
								C296.5,337.6,295.8,340,295.8,343.3z"/>
						</g>
					</g>
					<g id="XMLID_1119_">
						<g id="XMLID_1120_">
							<path id="XMLID_1121_" class="st0" d="M320,357.3v-28h11.9c3,0,5.2,0.2,6.5,0.8c1.4,0.5,2.5,1.4,3.2,2.7
								c0.8,1.3,1.2,2.8,1.2,4.4c0,2.1-0.6,3.8-1.8,5.2c-1.2,1.4-3.1,2.2-5.5,2.6c1.2,0.7,2.2,1.5,3,2.4c0.8,0.8,1.9,2.3,3.2,4.5
								l3.5,5.5h-6.8l-4.1-6.1c-1.5-2.2-2.5-3.5-3-4.1c-0.6-0.6-1.1-0.9-1.7-1.2c-0.7-0.2-1.6-0.3-2.9-0.3h-1.1v11.7H320z
								 M325.6,341.1h4.2c2.7,0,4.4-0.1,5.1-0.3c0.7-0.2,1.2-0.6,1.6-1.2c0.4-0.6,0.6-1.3,0.6-2.1c0-0.9-0.2-1.7-0.8-2.3
								c-0.5-0.6-1.2-1-2.1-1.1c-0.4-0.1-1.8-0.1-4.1-0.1h-4.4V341.1z"/>
						</g>
					</g>
				</g>
				<g id="XMLID_1067_">
					<g id="XMLID_1115_">
						<g id="XMLID_1116_">
							<rect id="XMLID_1117_" x="286.7" y="397.3" class="st0" width="5.3" height="5.3"/>
						</g>
					</g>
					<g id="XMLID_1110_">
						<g id="XMLID_1111_">
							<path id="XMLID_1112_" class="st0" d="M32.9,375h10.2c2.3,0,4,0.2,5.3,0.5c1.6,0.5,3,1.3,4.2,2.5c1.2,1.2,2,2.7,2.6,4.5
								c0.6,1.7,0.9,3.9,0.9,6.5c0,2.3-0.3,4.2-0.8,5.9c-0.7,2-1.7,3.6-2.9,4.9c-1,0.9-2.3,1.7-3.9,2.2c-1.2,0.4-2.9,0.6-4.9,0.6
								H32.9V375z M38.5,379.6v18.2h4.2c1.6,0,2.7-0.1,3.4-0.3c0.9-0.2,1.6-0.6,2.3-1.1c0.6-0.5,1.1-1.4,1.4-2.7
								c0.4-1.2,0.6-2.9,0.6-5c0-2.1-0.2-3.8-0.6-4.9c-0.4-1.1-0.9-2-1.6-2.7c-0.7-0.6-1.5-1.1-2.6-1.3c-0.8-0.2-2.3-0.3-4.6-0.3
								H38.5z"/>
						</g>
					</g>
					<g id="XMLID_1107_">
						<g id="XMLID_1108_">
							<polygon id="XMLID_1109_" class="st0" points="59.1,402.5 59.1,375 79.5,375 79.5,379.6 64.7,379.6 64.7,385.7 78.5,385.7 
								78.5,390.4 64.7,390.4 64.7,397.8 80.1,397.8 80.1,402.5 							"/>
						</g>
					</g>
					<g id="XMLID_1101_">
						<g id="XMLID_1102_">
							<path id="XMLID_1103_" class="st0" d="M92.3,375h11c2.2,0,3.8,0.1,4.9,0.3c1.1,0.2,2,0.6,2.9,1.1c0.9,0.6,1.5,1.3,2.1,2.3
								c0.6,1,0.8,2.1,0.8,3.2c0,1.3-0.3,2.5-1,3.6c-0.7,1.1-1.7,1.9-2.8,2.4c1.7,0.5,3,1.3,3.8,2.5c0.9,1.2,1.4,2.6,1.4,4.2
								c0,1.2-0.3,2.5-0.9,3.6c-0.6,1.2-1.4,2.1-2.4,2.8c-1,0.7-2.3,1.2-3.8,1.3c-0.9,0.1-3.2,0.2-6.7,0.2h-9.4V375z M97.8,379.5
								v6.4h3.6c2.2,0,3.5,0,4-0.1c1-0.1,1.7-0.4,2.2-1c0.5-0.5,0.8-1.2,0.8-2.1c0-0.8-0.2-1.5-0.7-2.1c-0.5-0.5-1.2-0.8-2.1-0.9
								c-0.6-0.1-2.1-0.1-4.7-0.1H97.8z M97.8,390.5v7.4h5.1c2,0,3.3-0.1,3.8-0.2c0.8-0.2,1.5-0.5,2-1.1c0.5-0.6,0.8-1.4,0.8-2.3
								c0-0.8-0.2-1.5-0.6-2.1c-0.4-0.6-1-1-1.7-1.3c-0.8-0.3-2.4-0.4-5-0.4H97.8z"/>
						</g>
					</g>
					<g id="XMLID_1096_">
						<g id="XMLID_1097_">
							<path id="XMLID_1098_" class="st0" d="M117.3,388.9c0-2.8,0.4-5.1,1.2-7c0.7-1.4,1.5-2.6,2.6-3.8c1.1-1.1,2.3-1.9,3.6-2.5
								c1.7-0.7,3.7-1.1,5.9-1.1c4.1,0,7.3,1.3,9.7,3.8c2.4,2.5,3.6,6,3.6,10.5c0,4.4-1.2,7.9-3.6,10.4c-2.4,2.5-5.6,3.8-9.7,3.8
								c-4.1,0-7.4-1.3-9.8-3.7C118.5,396.8,117.3,393.3,117.3,388.9 M123,388.7c0,3.1,0.7,5.5,2.2,7.1c1.4,1.6,3.3,2.4,5.5,2.4
								c2.2,0,4-0.8,5.5-2.4c1.4-1.6,2.1-4,2.1-7.2c0-3.1-0.7-5.5-2.1-7c-1.4-1.6-3.2-2.3-5.5-2.3c-2.3,0-4.1,0.8-5.5,2.4
								C123.7,383.2,123,385.6,123,388.7z"/>
						</g>
					</g>
					<g id="XMLID_1093_">
						<g id="XMLID_1094_">
							<path id="XMLID_1095_" class="st0" d="M159.6,392.4v-4.7h12v10.9c-1.2,1.1-2.8,2.1-5.1,3c-2.2,0.9-4.4,1.3-6.7,1.3
								c-2.9,0-5.4-0.6-7.5-1.8c-2.2-1.2-3.8-2.9-4.8-5.2c-1.1-2.3-1.6-4.7-1.6-7.3c0-2.9,0.6-5.4,1.8-7.6c1.2-2.2,2.9-3.9,5.3-5.1
								c1.7-0.9,4-1.4,6.6-1.4c3.4,0,6.1,0.7,8,2.1c1.9,1.4,3.1,3.4,3.7,6l-5.5,1.1c-0.4-1.4-1.1-2.4-2.2-3.2
								c-1.1-0.8-2.4-1.2-4-1.2c-2.4,0-4.3,0.8-5.8,2.3c-1.4,1.5-2.2,3.8-2.2,6.9c0,3.2,0.7,5.7,2.2,7.3c1.5,1.6,3.3,2.5,5.7,2.5
								c1.2,0,2.3-0.2,3.5-0.7c1.2-0.5,2.2-1,3-1.7v-3.4H159.6z"/>
						</g>
					</g>
					<g id="XMLID_1088_">
						<g id="XMLID_1089_">
							<path id="XMLID_1090_" class="st0" d="M173.9,388.9c0-2.8,0.4-5.1,1.2-7c0.6-1.4,1.5-2.6,2.6-3.8c1.1-1.1,2.3-1.9,3.6-2.5
								c1.7-0.7,3.7-1.1,6-1.1c4,0,7.3,1.3,9.7,3.8c2.4,2.5,3.6,6,3.6,10.5c0,4.4-1.2,7.9-3.6,10.4c-2.4,2.5-5.7,3.8-9.7,3.8
								c-4.1,0-7.4-1.3-9.8-3.7C175.2,396.8,173.9,393.3,173.9,388.9 M179.7,388.7c0,3.1,0.7,5.5,2.1,7.1c1.4,1.6,3.3,2.4,5.5,2.4
								c2.2,0,4-0.8,5.5-2.4c1.4-1.6,2.1-4,2.1-7.2c0-3.1-0.7-5.5-2-7c-1.4-1.6-3.3-2.3-5.6-2.3c-2.3,0-4.1,0.8-5.5,2.4
								C180.4,383.2,179.7,385.6,179.7,388.7z"/>
						</g>
					</g>
					<g id="XMLID_1085_">
						<g id="XMLID_1086_">
							<polygon id="XMLID_1087_" class="st0" points="209.6,402.5 209.6,379.6 201.5,379.6 201.5,375 223.4,375 223.4,379.6 
								215.2,379.6 215.2,402.5 							"/>
						</g>
					</g>
					<g id="XMLID_1079_">
						<g id="XMLID_1080_">
							<path id="XMLID_1081_" class="st0" d="M250.2,402.5h-6.1l-2.4-6.3h-11l-2.3,6.3h-5.9l10.7-27.6h5.9L250.2,402.5z
								 M239.9,391.6l-3.8-10.2l-3.7,10.2H239.9z M234.2,372.5l2.6-5.6h5.9l-5.1,5.6H234.2z"/>
						</g>
					</g>
					<g id="XMLID_1074_">
						<g id="XMLID_1075_">
							<path id="XMLID_1076_" class="st0" d="M260.5,375h10.2c2.3,0,4,0.2,5.2,0.5c1.6,0.5,3,1.3,4.1,2.5c1.1,1.2,2,2.7,2.6,4.5
								c0.6,1.7,0.9,3.9,0.9,6.5c0,2.3-0.3,4.2-0.8,5.9c-0.7,2-1.7,3.6-2.9,4.9c-1,0.9-2.3,1.7-3.9,2.2c-1.2,0.4-2.9,0.6-4.9,0.6
								h-10.5V375z M266.1,379.6v18.2h4.2c1.6,0,2.7-0.1,3.4-0.3c0.9-0.2,1.6-0.6,2.3-1.1c0.6-0.5,1.1-1.4,1.5-2.7
								c0.4-1.2,0.5-2.9,0.5-5c0-2.1-0.2-3.8-0.5-4.9c-0.4-1.1-0.9-2-1.6-2.7c-0.6-0.6-1.5-1.1-2.5-1.3c-0.8-0.2-2.3-0.3-4.6-0.3
								H266.1z"/>
						</g>
					</g>
					<g id="XMLID_1071_">
						<g id="XMLID_1072_">
							<path id="XMLID_1073_" class="st0" d="M313.5,392.3l5.4,1.7c-0.8,3-2.2,5.3-4.1,6.7c-1.9,1.4-4.4,2.2-7.3,2.2
								c-3.7,0-6.7-1.2-9-3.7c-2.4-2.5-3.6-5.9-3.6-10.3c0-4.6,1.2-8.1,3.6-10.7c2.4-2.5,5.5-3.8,9.3-3.8c3.4,0,6.1,1,8.2,3
								c1.2,1.2,2.2,2.9,2.8,5.1l-5.5,1.3c-0.3-1.4-1-2.6-2-3.4c-1-0.8-2.3-1.3-3.7-1.3c-2.1,0-3.7,0.7-5,2.2
								c-1.3,1.5-1.9,3.8-1.9,7.1c0,3.5,0.6,5.9,1.9,7.4c1.2,1.5,2.8,2.2,4.9,2.2c1.5,0,2.8-0.5,3.8-1.4
								C312.2,395.9,313,394.4,313.5,392.3"/>
						</g>
					</g>
					<g id="XMLID_1068_">
						<g id="XMLID_1069_">
							<rect id="XMLID_1070_" x="321.9" y="397.4" class="st0" width="5.3" height="5.3"/>
						</g>
					</g>
				</g>
			</g>
			<g id="XMLID_1025_">
				<g id="XMLID_3_">
					<g id="XMLID_59_">
						<path id="XMLID_60_" class="st1" d="M83.4,77.1c29.9,15.9,66.6,15.9,96.6,0.2c30.2,15.5,66.4,15.7,96.5-0.2v173
							c0,21.2-17.7,38-39.3,38c-20.9,0-39.3,3.1-57.3,14.4c-18-11.5-36.6-14.4-57.5-14.4c-21.6,0-39.1-16.8-39.1-38V77.1z"/>
					</g>
					<g id="XMLID_57_">
						<path id="XMLID_58_" class="st2" d="M116.3,232.4c0,13.8,10.6,25.1,25.2,25.1c14.2,0,25.9,1.5,38.3,9.3
							c12.3-7.7,23.9-9.3,38-9.3c14.6,0,27-11.3,27-25.1l0.1-116.3c-15.7,8.2-49.3,2.8-64.4-5c-14.9,7.7-48.9,13.3-64.3,5"/>
					</g>
					<g id="XMLID_47_">
						<path id="XMLID_48_" class="st3" d="M195.4,228.6c-0.3,2.8,0.5,5.7,2.7,8.1c1.9,2.4,4.6,3.6,7.4,3.6c0.2-2.8-0.7-5.9-2.7-8.3
							C200.5,229.8,197.9,228.6,195.4,228.6 M232.8,206.6c0.7-1.2,3.9-2.1,5.4,0l0.5-0.5c0,0-1.2-3.3-3.7-2.9c0,0,1.5-4,0.7-4.5
							c-0.7-0.2-3.7,2.8-3.7,2.8c-0.8-2.3-4.5-2.3-4.5-2.3v0.9c2.5,0.2,3,3.6,2.2,4.7C229.6,205.6,232.2,207.3,232.8,206.6z
							 M229.8,217c2.7-4.3,2.7-9,0.5-10.2c-2.2-1.2-6.4,0.9-9.1,5.2c-2.9,4-2.2,7.6,0,8.8C223.4,222.2,226.9,221.2,229.8,217z
							 M164.4,228.6c0.3,2.8-0.5,5.7-2.7,8.1c-2,2.4-4.7,3.6-7.4,3.6c-0.2-2.8,0.7-5.9,2.7-8.3C159.3,229.8,162,228.6,164.4,228.6z
							 M127.1,206.6c-0.7-1.2-3.9-2.1-5.4,0l-0.5-0.5c0,0,1.2-3.3,3.7-2.9c0,0-1.5-4-0.7-4.5c0.7-0.2,3.7,2.8,3.7,2.8
							c0.7-2.3,4.4-2.3,4.4-2.3v0.9c-2.5,0.2-2.9,3.6-2.2,4.7C130.3,205.6,127.6,207.3,127.1,206.6z M130.1,217
							c-2.7-4.3-2.7-9-0.5-10.2c2.2-1.2,6.4,0.9,9.1,5.2c3,4,2.2,7.6,0,8.8C136.4,222.2,133,221.2,130.1,217z M150,248.3
							c-1-4.7,1.6-15-10.2-23.2c-6.7,7.7-9.7,1.9-9.7,1.9c1.8-0.7,6.1-1.7,8.3-5c-5.4,3-11.4,2.2-14-1.9c-2.7-4.3-0.5-10.4,4.9-13.7
							c5.4-3.3,12-2.6,14.7,1.7c2.6,4.1,0.6,9.8-4.4,13.2c3.6,0.3,8.3-4.6,8.3-4.6c2.1,3.8-1.7,6-4.7,7c11.5,7.9,11.6,21.6,12.3,25
							L150,248.3z M209.9,248.3c1-4.7-1.6-15,10.2-23.2c6.7,7.7,9.7,1.9,9.7,1.9c-1.8-0.7-6.1-1.7-8.3-5c5.4,3,11.4,2.2,14-1.9
							c2.7-4.3,0.5-10.4-4.9-13.7c-5.4-3.3-12-2.6-14.7,1.7c-2.6,4.1-0.7,9.8,4.4,13.2c-3.7,0.3-8.4-4.6-8.4-4.6
							c-2.1,3.8,1.7,6,4.6,7c-11.5,7.9-11.5,21.6-12.3,25L209.9,248.3z"/>
					</g>
					<g id="XMLID_42_">
						<path id="XMLID_43_" class="st4" d="M174,138.1c0-1.4,1-2.4,2.4-2.4c1.2,0,2.2,0.9,2.2,2.4c0,1.2-1,2.1-2.2,2.1
							C174.9,140.2,174,139.3,174,138.1 M185.3,131l4.9-7.6l-7.6,2.9l-2.7-6.9l-2.9,6.9l-7.9-2.9l5.2,7.6H185.3z M188.1,200.3
							c-4.1-3.1,0.5-4.5,1.6-3.4c10.1,8.5,19.2,2.6,19.2,2.6c-7.1-2.4-10.6-10.4-10.6-10.4c14.7,8.5,26-1.2,26-1.2
							c-9.8,1.7-17.4-7.6-17.4-7.6c15.2,3.5,25.8-6.6,25.8-6.6c-5.7,0.5-19.6-5.5-19.6-5.5c22.4-0.7,24.3-16.6,24.6-16.6
							c-6.2,4-22.6,2.1-22.6,2.1c23.4-8.3,21.6-27.5,21.6-27.5c-5,7.3-27.5,14.4-27.5,14.4c-6.2,1.9-11.1,7.4-11.1,13.7
							c-0.3,2.6-2.7,4.7-5.4,4.7c-6,0-5.9-8.7-5.9-12.8c0-6.2-0.2-13.2-4.7-13.2h-8.8c-1.6,0-4.4-0.2-5.5,1.2
							c-2.3,2.7-1.9,9.7-0.9,8.3c0,0,3.4-0.9,5.6,0c2.9,0.8,0.8,9.7,0.8,11.6c0,2.6-2.5,5-5.4,5c-2.7,0-5.2-2.1-5.4-4.7
							c0-6.4-4.9-11.9-10.8-13.7c0,0-23.1-7.1-28-14.4c0,0-1.7,19.4,21.9,27.9c0,0-16.7,1.4-22.8-2.6c0.2,0,3.2,16.6,25.5,17.3
							c0,0-14.7,5-20.1,4.3c0,0,10.5,12.1,26.3,8.5c0,0-8.6,7.8-18.4,6.2c0,0,11.1,9.9,26.1,1.7c0,0-3.2,7.6-10.3,10
							c0,0,9.1,5.9,19.4-2.6c1.3-1.5,5.5,0.2,1.3,3.4c-5.6,4.3-13.6,5.3-17,12.4l4.1,0.8c-4.7,4.7-10.9,11.3-11.5,11.5
							c0,0-1.5-2.1-6.1,0.2c-2.5,1.2-3.7,4.3-2,5.4c0,0-0.7,3.8,3.7,3.5c0,0,1.7,3.1,5.4,0.7c3.4-2.4-0.3-1.7-0.7-2.6
							c-0.5-0.7,0.3-0.5,0.3-0.5c1.7-0.3,3.9-2.1,2.4-3.8c-0.2-0.3,8-5.4,14-9l0.8,3.8c2.1-2.8,5.1-4.6,8.5-5.7
							c-3.7,5.1-5.9,10.8-4.6,19c0,0,1-3.1,5.9-3.6c0,0-6.9,8.3,4.2,24.4c11-16.1,4.7-24.4,4.7-24.4c4.9,0.5,6.1,3.6,6.1,3.6
							c1.1-8.2-1-14-4.9-19.1c3.6,1,6.4,2.9,8.6,5.8l0.8-3.9c5.9,3.7,14.1,8.8,14,9.1c-1.5,1.7,1,3.5,2.4,3.8c0,0,0.5-0.3,0.3,0.5
							c-0.5,0.9-4.2,0.2-0.8,2.6c3.5,2.4,5.4-0.7,5.4-0.7c4.4,0.3,3.7-3.5,3.7-3.5c1.7-1.2,0.5-4.3-2.2-5.4
							c-4.7-2.4-6.1-0.2-6.1-0.2c-0.5-0.2-6.6-6.8-11.2-11.5l4.1-0.8C201.4,205.9,193.5,204.4,188.1,200.3z"/>
					</g>
					<g id="XMLID_4_">
						<g id="XMLID_5_">
							<path id="XMLID_39_" class="st5" d="M99,125.4c-3.3,1.2-6.8-0.2-8.8-0.6c0,0-0.6,5.4,7.7,3.7c-0.4,4.3,2.2,7.5,3.4,11.8
								c-0.6-0.7-1.3-1.4-2.2-2c-2.5-1.4-5.4-1.9-8.1-1.4c0.2,2.1,1.5,4.5,3.9,5.9c2.1,1.4,4.5,1.9,6.9,1.8c-0.1,2.1-0.6,4.4-2,7.2
								l3.9,3.1c2-3.8,2.5-12.6-0.5-18.7c-2-4.2-2.4-5.8-2.2-7.4c2.7,1,8.1,2.3,8.8-2.3c0,0-6,1-8.8-0.9c5.4-0.2,10.1-3.4,10.5-7.6
								c0.2-4.5-4.2-8.5-10.1-8.8c-5.9-0.5-11.1,2.8-11.5,7.3C89.7,120.8,93.6,124.6,99,125.4z M101.5,109.4c2.2,0.2,3.9,4,3.7,8.8
								c-0.2,4.5-2.7,6.9-4.9,6.6c-2.5-0.2-4.4-2.9-4.2-7.4C96.3,112.8,99,109.2,101.5,109.4z"/>
							<path id="XMLID_38_" class="st5" d="M188.4,104.5c-1.5,1.6,0.3,4.3,0.3,4.3h0.7c-0.7-2.4,1.5-4.3,3-4.3c0.7,0,0.7-2.8,0-2.8
								c-1.2,0-3.7-1.9-2.5-4l-0.8-0.2c0,0-2,2.6-0.5,4.3c0,0-4.2,0.7-4.2,1.4C184.5,103.8,188.4,104.5,188.4,104.5z"/>
							<path id="XMLID_37_" class="st5" d="M100,107.6c0,0.7,3,0.9,3.2,0.2c0-1.2,2.2-3.3,4.4-2.4l0.3-0.5c0,0-2.5-2.1-4.4-0.7
								c0,0-0.5-3.8-1.2-3.8c-0.7-0.2-2,3.6-2,3.6c-1.5-1.4-4.4,0.2-4.4,0.2l0.2,0.7C98.3,104,100,106.4,100,107.6z"/>
							<path id="XMLID_36_" class="st5" d="M257.8,107.8c0,0.7,3.2,0.5,3.2-0.2c-0.2-1.2,1.7-3.5,3.9-2.6l0.2-0.7c0,0-3-1.7-4.4-0.2
								c0,0-1.2-3.8-2-3.6c-0.8,0-1.3,3.8-1.3,3.8c-1.9-1.4-4.4,0.7-4.4,0.7l0.3,0.5C255.6,104.5,257.8,106.6,257.8,107.8z"/>
							<path id="XMLID_35_" class="st5" d="M261.4,177.4c0-1.2,2.2-3.3,4.4-2.4l0.3-0.7c0,0-2.5-1.9-4.4-0.5c0,0-0.5-3.8-1.2-3.8
								c-0.7-0.3-2,3.5-2,3.5c-1.5-1.4-4.4,0.2-4.4,0.2l0.2,0.7c2.2-1,4.2,1.4,3.9,2.6C258.2,177.9,261.4,178.1,261.4,177.4z"/>
							<path id="XMLID_32_" class="st5" d="M260,125.6c-2.8,1.9-8.8,0.9-8.8,0.9c0.7,4.6,6.1,3.3,8.8,2.3c0.2,1.6-0.1,3.2-2.2,7.4
								c-3.2,6.1-2.4,14.9-0.5,18.7l3.9-3.1c-1.4-2.8-2-5.2-2.1-7.2c2.4,0.2,4.9-0.4,7-1.8c2.2-1.4,3.7-3.8,3.9-5.9
								c-2.7-0.5-5.7,0-8.1,1.4c-1,0.7-1.8,1.5-2.5,2.3c1.1-4.4,3.9-7.7,3.5-12.1c8.5,1.8,7.8-3.7,7.8-3.7c-1.9,0.4-5.5,1.8-8.8,0.6
								c5.4-0.8,9.3-4.7,9-8.9c-0.5-4.5-5.6-7.8-11.5-7.3c-5.9,0.2-10.3,4.3-10.1,8.8C250,122.2,254.5,125.4,260,125.6z
								 M259.6,109.4c2.5-0.2,5.2,3.3,5.4,8c0.2,4.5-2,7.1-4.2,7.4c-2.5,0.2-4.9-2.1-5.2-6.6C255.4,113.5,257.3,109.7,259.6,109.4z"
								/>
							<path id="XMLID_31_" class="st5" d="M106.7,174.6l0.2-0.7c0,0-2.9-1.7-4.4-0.2c0,0-1.2-3.8-2-3.5c-0.7,0-1.2,3.8-1.2,3.8
								c-2-1.4-4.4,0.5-4.4,0.5l0.2,0.7c2.2-0.9,4.4,1.2,4.4,2.4c0.2,0.7,3.2,0.5,3.2-0.3C102.5,176,104.5,173.6,106.7,174.6z"/>
							<path id="XMLID_30_" class="st5" d="M168.3,104.5c1.5,0,3.7,1.9,3,4.3h0.7c0,0,1.7-2.6,0.3-4.3c0,0,3.9-0.7,3.9-1.4
								c0-0.7-4.2-1.4-4.2-1.4c1.5-1.7-0.5-4.3-0.5-4.3l-0.7,0.2c1.2,2.1-1.2,4-2.4,4C167.6,101.6,167.6,104.5,168.3,104.5z"/>
							<path id="XMLID_27_" class="st5" d="M99.1,224.6l3.9-3.1c-5.7-11.8,2.6-15.9,1.9-23.3c8.3,1.7,7.7-3.7,7.7-3.7
								c-2,0.4-5.8,1.9-9.2,0.4c5.6-0.5,9.7-4.4,9.5-8.7c-0.5-4.5-5.7-7.8-11.5-7.6c-5.9,0.5-10.3,4.5-10.1,9
								c0.5,4.3,5.2,7.5,10.8,7.4c-2.6,2.2-9.1,1.1-9.1,1.1c0.7,4.6,6.1,3.3,8.8,2.3c0.2,1.6-0.2,3.2-2.2,7.4
								c-0.4,0.7-0.7,1.5-0.9,2.3c-0.2-1.5-1-3.1-2.5-4.2c-1.9-1.9-4.7-2.9-7.4-2.6c-0.5,2.1,0.2,4.5,2.2,6.4
								c1.8,1.8,4.5,2.7,7.1,2.6C97,215.8,97.6,221.7,99.1,224.6z M97.6,187.9c-0.3-4.7,1.5-8.5,3.7-8.8c2.5-0.2,5.2,3.3,5.4,8.1
								c0.2,4.5-1.7,7.1-4.2,7.4C100.3,194.7,97.9,192.4,97.6,187.9z"/>
							<path id="XMLID_26_" class="st5" d="M99.8,246.9c0.2,0.5,2.9-1.2,2.4-1.7c-0.7-1.2-0.2-4,2.2-4.5l-0.3-0.7c0,0-3.2,0-3.9,2.1
								c0,0-2.7-2.8-3.4-2.4c-0.7,0.5,1,4,1,4c-2.5-0.5-3.7,2.6-3.7,2.6l0.5,0.5C96.1,244.7,99,245.7,99.8,246.9z"/>
							<path id="XMLID_25_" class="st5" d="M263.3,243.8c0,0,1.5-3.6,1-4c-0.7-0.5-3.4,2.4-3.4,2.4c-0.8-2.1-3.9-2.1-3.9-2.1
								l-0.2,0.7c2.4,0.5,2.7,3.3,2,4.5c-0.3,0.5,2.5,2.1,2.7,1.7c0.7-1.2,3.7-2.1,4.9,0l0.7-0.5C267,246.4,265.7,243.3,263.3,243.8
								z"/>
							<path id="XMLID_22_" class="st5" d="M241,109.2l-3-4c-3,1.1-5.5,1.4-7.6,1.4c0.4-2.1,0.1-4.6-1.2-6.8
								c-1.2-2.4-3.5-3.8-5.9-4.3c-0.8,2.6-0.5,5.5,1,7.8c0.5,1,1.2,1.8,2,2.5c-4.3-1.4-7.4-4.2-11.8-4.4c2.2-7.9-3.5-7.7-3.5-7.7
								c0.2,1.8,1.5,5.5-0.2,8.7c-0.1-5.3-3.6-9.6-8.1-9.6c-4.9,0-8.8,4.5-8.8,10.2c-0.2,5.7,3.4,10.4,8.1,10.4
								c4.8,0,8.6-4.2,8.8-9.6c2,2.7,0.5,8.7,0.5,8.7c4.5-0.2,3.7-5.6,3.1-8.2c1.5,0.1,3.3,0.6,7.2,2.7
								C227.7,110.6,236.9,110.6,241,109.2z M202.7,107.5c-4.6-0.2-8.3-2.1-8.6-4.5c0-2.1,3.9-4.5,8.8-4.5c4.7,0.3,7.1,2.6,7.1,4.7
								C210.3,105.7,207.6,107.8,202.7,107.5z"/>
							<path id="XMLID_19_" class="st5" d="M272.4,201.4c-3-0.2-5.6,0.7-7.6,2.6c-1.3,1.1-2.2,2.6-2.5,4.1c-0.3-0.8-0.6-1.5-1-2.3
								c-2-4.2-2.4-5.8-2.2-7.4c2.7,1,8.1,2.3,8.8-2.3c0,0-6.4,1-9.1-1.1c5.6,0.1,10.3-3.1,10.8-7.4c0.2-4.5-4.2-8.5-10.1-9
								c-5.9-0.2-11.1,3.1-11.6,7.6c-0.2,4.3,3.9,8.2,9.5,8.7c-3.5,1.5-7.1,0-8.9-0.4c0,0-0.9,5.5,7.5,3.7
								c-0.5,7.4,7.7,11.6,1.8,23.3l3.9,3.1c1.5-2.9,2.3-8.8,1.1-14.2c2.5,0.1,5.2-0.9,7-2.6C272,205.9,272.7,203.5,272.4,201.4z
								 M254.3,187.1c0.2-4.7,2.9-8.3,5.4-8.1c2.2,0.2,4.2,4,3.9,8.8c-0.2,4.5-2.7,6.9-5.2,6.6C256.2,194.2,254,191.7,254.3,187.1z"
								/>
							<path id="XMLID_16_" class="st5" d="M259.4,247.1c-4.9-3.1-11.1-2.6-13.5,1.2c-2.6,3.7-0.9,9,3.6,12.2
								c-3.4,0.1-7.8-4.1-7.8-4.1c-2.2,3.9,2.9,6,5.6,6.7c-0.8,1.5-2.2,2.5-6.4,4.6c-6.4,3.1-11.3,10.4-12.3,14.7l5.2-0.2
								c0.6-3,1.6-5.1,2.8-6.8c1.8,1.5,4,2.4,6.5,2.6c2.9,0.2,5.4-1,7.1-2.6c-2-1.9-4.4-3.3-7.4-3.3c-1.2-0.1-2.2,0-3.3,0.3
								c3.6-2.7,7.7-3.8,10.3-7.5c5.6,6.1,8.4,1.3,8.4,1.3c-1.8-0.6-5.6-1.7-7.6-4.8c5,2.8,10.4,2,13-1.6
								C266.2,255.9,264.3,250.2,259.4,247.1z M258.4,256.8c-2.7,3.8-5.9,4.7-7.9,3.5c-2.2-1.2-2.7-4.5,0-8.3
								c2.7-3.8,6.6-5.7,8.6-4.5C261.1,248.8,261.1,253,258.4,256.8z"/>
							<path id="XMLID_13_" class="st5" d="M120.1,267.7c-4.2-2.1-5.5-3.2-6.4-4.6c2.7-0.8,7.8-2.8,5.6-6.7c0,0-4.6,4.4-8,4.1
								c4.7-3.1,6.4-8.5,3.9-12.2c-2.5-3.8-8.6-4.3-13.5-1.2c-4.9,3.1-6.9,8.8-4.4,12.6c2.6,3.7,8.3,4.5,13.1,1.4
								c-1.9,3.2-5.9,4.3-7.7,5c0,0,2.8,4.8,8.5-1.3c2.5,3.7,6.7,4.7,10.2,7.5c-1-0.3-2.1-0.4-3.2-0.3c-2.9,0-5.6,1.4-7.4,3.3
								c1.5,1.7,4.2,2.8,7.1,2.6c2.3-0.2,4.6-1.1,6.5-2.6c1.2,1.7,2.2,3.9,2.8,6.9l5.2,0.2C131.4,278.1,126.5,270.8,120.1,267.7z
								 M110.6,260.4c-2,1.2-5.2,0.2-7.9-3.5c-2.7-3.8-2.7-8.1-0.7-9.2c2-1.2,5.9,0.7,8.6,4.5C113,255.9,112.5,259.2,110.6,260.4z"
								/>
							<path id="XMLID_10_" class="st5" d="M158.7,113.5c4.7,0,8.4-4.7,8.1-10.4c0-5.7-4-10.2-8.9-10.2c-4.5,0-8,4.3-8.1,9.6
								c-1.7-3.2-0.5-6.9-0.2-8.7c0,0-5.6-0.2-3.5,7.7c-4.4,0.2-7.5,3-11.8,4.4c0.8-0.7,1.5-1.5,2-2.5c1.5-2.4,1.7-5.2,1-7.8
								c-2.5,0.5-4.7,1.9-5.9,4.3c-1.3,2.2-1.6,4.7-1.2,6.8c-2.1,0.1-4.6-0.3-7.6-1.4l-2.9,4c4.2,1.4,13.3,1.4,19.4-2.2
								c3.9-2.1,5.7-2.7,7.2-2.7c-0.6,2.6-1.4,8,3.1,8.2c0,0-1.5-6,0.5-8.7C150.1,109.3,154,113.5,158.7,113.5z M150.6,103.3
								c0-2.1,2.4-4.5,7.1-4.7c4.9,0,8.8,2.4,8.8,4.5c-0.2,2.4-3.9,4.3-8.6,4.5C153.1,107.8,150.3,105.7,150.6,103.3z"/>
							<path id="XMLID_7_" class="st5" d="M188.1,280.1c-4.4,1.2-6.2,1.3-7.8,0.8c1.3-2.4,3.3-7.2-1.3-8.4c0,0,0.2,5.9-2.3,8.1
								c0.8-5.3-1.9-10-6.3-11.1c-4.7-1-9.3,2.9-10.6,8.5c-1,5.4,1.7,10.7,6.4,11.8c4.5,0.9,9-2.6,10.2-7.7c0.9,3.4-1.2,6.7-1.8,8.4
								c0,0,5.6,1.7,5.1-6.5c4.4,0.8,8.2-1.2,12.7-1.7c-0.9,0.5-1.8,1-2.6,1.8c-1.7,2.1-2.7,5-2.7,7.6c2.5,0,4.9-1,6.9-3.1
								c1.7-1.6,2.6-3.9,2.7-6.2c2.2,0.4,4.4,1.2,7.1,2.9l3.9-3.3C204,279.6,194.9,277.9,188.1,280.1z M176,281
								c-0.5,2.3-3.7,4-8.3,3.1c-4.7-0.9-7.9-4-7.4-6.1c0.5-2.2,4.7-3.3,9.6-2.6C174.6,276.3,176.5,278.9,176,281z"/>
							<path id="XMLID_6_" class="st5" d="M158.8,276c-1.2-0.3-3.2-2.6-1.7-4.5l-0.7-0.5c0,0-2.5,2.1-1.2,4.3c0,0-3.9,0-4.2,0.5
								c-0.2,0.7,3.7,2.4,3.7,2.4c-2,1.4-0.7,4.3-0.7,4.3h0.7c-0.5-2.3,2.2-3.8,3.7-3.5C158.8,279.1,159.6,276.3,158.8,276z"/>
						</g>
					</g>
				</g>
				<path id="XMLID_1030_" class="st6" d="M179.4,74.7c-30.6,16-68,16-98.5-0.2V251c0,21.6,17.8,38.8,39.9,38.8
					c21.3,0,40.3,3,58.7,14.7c18.3-11.5,37.1-14.7,58.5-14.7c22,0,40.1-17.2,40.1-38.8V74.4C247.2,90.7,210.3,90.5,179.4,74.7z"/>
			</g>
		</g>
	</g>
</g>
</svg>
