<?xml version="1.0" encoding="utf-8"?>
<!-- Generator: Adobe Illustrator 19.0.0, SVG Export Plug-In . SVG Version: 6.00 Build 0)  -->
<svg version="1.1" id="Layer_1" xmlns:x="&ns_extend;" xmlns:i="&ns_ai;" xmlns:graph="&ns_graphs;"
	 xmlns="http://www.w3.org/2000/svg" xmlns:xlink="http://www.w3.org/1999/xlink" x="0px" y="0px" viewBox="0 0 960 480"
	 style="enable-background:new 0 0 960 480;" xml:space="preserve">
<style type="text/css">
	.st0{fill:#FFFFFF;}
	.st1{fill-rule:evenodd;clip-rule:evenodd;fill:#004993;}
	.st2{fill-rule:evenodd;clip-rule:evenodd;fill:#FFD400;}
	.st3{fill-rule:evenodd;clip-rule:evenodd;fill:#E10714;}
	.st4{fill-rule:evenodd;clip-rule:evenodd;fill:#1D1D1B;}
	.st5{fill:#FFD400;}
	.st6{fill:none;stroke:#FFFFFF;stroke-width:3;stroke-miterlimit:10;}
</style>
<metadata>
	<sfw  xmlns="&ns_sfw;">
		<slices></slices>
		<sliceSourceBounds  height="333.6" width="930.1" x="14.9" y="-446.6" bottomLeftOrigin="true"></sliceSourceBounds>
	</sfw>
</metadata>
<g id="XMLID_1022_">
	<g id="XMLID_1249_">
		<g id="XMLID_1289_">
			<g id="XMLID_1290_">
				<path id="XMLID_1305_" class="st0" d="M496.5,198.3c0-2.6,2-4.6,4.6-4.6H516c4.8,0,8.6,1.3,11,3.7c1.9,1.9,2.9,4.3,2.9,7.1v0.1
					c0,4.7-2.5,7.4-5.5,9.1c4.9,1.9,7.9,4.7,7.9,10.3v0.1c0,7.7-6.2,11.5-15.7,11.5h-15.3c-2.6,0-4.6-2-4.6-4.6V198.3z M514.1,210.7
					c4.1,0,6.6-1.3,6.6-4.4v-0.1c0-2.8-2.2-4.3-6.1-4.3h-9.1v8.9H514.1z M516.5,227.6c4.1,0,6.5-1.4,6.5-4.6v-0.1
					c0-2.8-2.1-4.6-6.8-4.6h-10.7v9.2H516.5z"/>
				<path id="XMLID_1302_" class="st0" d="M536.3,208.3v-0.2c0-15.7,12.4-28.5,29.4-28.5c17,0,29.2,12.7,29.2,28.4v0.2
					c0,15.7-12.4,28.5-29.4,28.5C548.5,236.7,536.3,224,536.3,208.3z M582.2,208.3v-0.2c0-9.5-6.9-17.3-16.7-17.3
					c-9.8,0-16.6,7.7-16.6,17.2v0.2c0,9.5,6.9,17.3,16.7,17.3C575.5,225.5,582.2,217.7,582.2,208.3z"/>
				<path id="XMLID_1300_" class="st0" d="M600.8,201.1v-0.2c0-19.8,15.4-36,36.5-36c10.5,0,17.5,2.4,23.8,6.8
					c1.5,1.1,3.2,3.2,3.2,6.2c0,4.2-3.4,7.6-7.5,7.6c-2.2,0-3.6-0.8-4.7-1.6c-4.2-3-8.6-4.8-15.2-4.8c-11.1,0-20,9.8-20,21.7v0.2
					c0,12.7,8.7,22.1,21.1,22.1c5.6,0,10.5-1.4,14.4-4.2v-9.9H642c-3.7,0-6.7-2.9-6.7-6.6c0-3.7,3-6.7,6.7-6.7h17.5
					c4.3,0,7.7,3.4,7.7,7.6v16.9c0,4.5-1.7,7.6-5.4,9.7c-5.7,3.5-13.9,7-24.4,7C615.7,236.9,600.8,221.7,600.8,201.1z"/>
				<path id="XMLID_1297_" class="st0" d="M671.5,193.4v-0.2c0-24.2,19.1-44.1,45.4-44.1c26.3,0,45.1,19.6,45.1,43.8v0.2
					c0,24.2-19.1,44-45.4,44C690.3,237.2,671.5,217.6,671.5,193.4z M742.4,193.4v-0.2c0-14.6-10.7-26.8-25.8-26.8
					c-15.1,0-25.6,11.9-25.6,26.5v0.2c0,14.6,10.7,26.8,25.8,26.8C732,219.9,742.4,208,742.4,193.4z"/>
				<path id="XMLID_1295_" class="st0" d="M784.4,154.4h-21.6c-5.7,0-10.3-4.7-10.3-10.3c0-5.7,4.7-10.3,10.3-10.3h65.5
					c5.7,0,10.3,4.7,10.3,10.3c0,5.7-4.7,10.3-10.3,10.3h-21.6v70.9c0,6.3-5,11.2-11.2,11.2c-6.3,0-11.2-5-11.2-11.2V154.4z"/>
				<path id="XMLID_1291_" class="st0" d="M826.4,218.7l41.8-94.4c2.9-6.5,8.2-10.5,15.4-10.5h1.5c7.2,0,12.3,3.9,15.3,10.5
					l41.8,94.4c0.9,1.9,1.4,3.6,1.4,5.3c0,7-5.5,12.7-12.5,12.7c-6.2,0-10.3-3.6-12.7-9.1l-8.1-18.9h-52.8l-8.4,19.7
					c-2.2,5.1-6.7,8.2-12.2,8.2c-6.9,0-12.2-5.5-12.2-12.3C824.9,222.5,825.6,220.6,826.4,218.7z M900.6,185.5L884,145.9l-16.6,39.6
					H900.6z M877,101.2c0-1.5,0.9-3.2,1.7-4.6l9.4-14.7c2.2-3.6,5.5-5.8,9.8-5.8c6.3,0,14.6,3.9,14.6,7.9c0,2.4-1.4,4.3-3.4,6.2
					l-10.6,9.9c-5,4.6-9.1,5.7-14.9,5.7C879.7,105.6,877,103.9,877,101.2z"/>
			</g>
		</g>
		<g id="XMLID_1276_">
			<path id="XMLID_1287_" class="st0" d="M496.5,262.4c0-5.5,4.3-9.8,9.8-9.8h2.2c4.2,0,7.1,2.2,8.9,5.1l23.6,38.4l23.7-38.6
				c2-3.3,4.8-4.9,8.8-4.9h2.2c5.5,0,9.8,4.3,9.8,9.8v70.5c0,5.5-4.3,9.8-9.8,9.8c-5.3,0-9.6-4.4-9.6-9.8v-44.3L548.7,315
				c-2,3-4.6,5-8.1,5c-3.6,0-6.1-1.9-8.1-5l-16.9-26v44.2c0,5.3-4.3,9.5-9.6,9.5c-5.3,0-9.5-4.2-9.5-9.5V262.4z"/>
			<path id="XMLID_1285_" class="st0" d="M606.6,332.2v-69.3c0-5.5,4.3-9.8,9.8-9.8h49.2c4.8,0,8.8,3.9,8.8,8.8
				c0,4.8-3.9,8.6-8.8,8.6H626v18h33.9c4.8,0,8.7,3.9,8.7,8.8c0,4.8-3.9,8.6-8.7,8.6H626v18.6h40.2c4.8,0,8.8,3.9,8.8,8.7
				c0,4.8-3.9,8.6-8.8,8.6h-49.9C610.9,341.9,606.6,337.6,606.6,332.2z"/>
			<path id="XMLID_1283_" class="st0" d="M688.3,335.5c-2-1.5-3.7-4.5-3.7-7.5c0-5.2,4.1-9.4,9.3-9.4c2.4,0,3.9,0.6,5.8,2
				c3.9,2.9,7.4,4.4,11.8,4.4c7.6,0,12.2-4.4,12.2-14.7v-48.2c0-5.5,4.3-9.8,9.8-9.8c5.5,0,9.8,4.3,9.8,9.8v49.1
				c0,10.5-3,18.4-8.4,23.7c-5.5,5.4-13.4,8.2-23.1,8.2C701.6,343.2,693.9,339.8,688.3,335.5z"/>
			<path id="XMLID_1280_" class="st0" d="M759.2,297.8v-0.3c0-25.3,19.9-45.9,47.3-45.9c27.4,0,47.1,20.4,47.1,45.7v0.3
				c0,25.3-19.9,45.9-47.3,45.9C778.9,343.5,759.2,323,759.2,297.8z M833.2,297.8v-0.3c0-15.2-11.2-27.9-26.9-27.9
				c-15.7,0-26.6,12.4-26.6,27.7v0.3c0,15.2,11.2,27.9,26.9,27.9C822.3,325.4,833.2,313,833.2,297.8z"/>
			<path id="XMLID_1277_" class="st0" d="M871,262.9c0-5.5,4.3-9.8,9.8-9.8h30.8c11.3,0,20,3.2,25.9,9c5,4.9,7.6,11.9,7.6,20.3v0.2
				c0,14-7,22.6-17.8,27l13.6,16.5c1.9,2.4,3.2,4.4,3.2,7.5c0,5.5-4.6,9-9.3,9c-4.4,0-7.4-2.1-9.6-5.1l-19-24.1h-15.6v19.4
				c0,5.5-4.3,9.8-9.8,9.8c-5.5,0-9.8-4.3-9.8-9.8V262.9z M910.3,296.3c9.5,0,15-5.1,15-12.6v-0.3c0-8.4-5.8-12.7-15.3-12.7h-19.4
				v25.5H910.3z"/>
		</g>
		<g id="XMLID_1250_">
			<path id="XMLID_1273_" class="st0" d="M496.5,363.6c0-2.8,2.2-5.1,5.1-5.1h13.8c11,0,17.7,6.5,17.7,16v0.1
				c0,10.7-8.3,16.2-18.7,16.2h-7.7v9.2c0,2.8-2.2,5.1-5.1,5.1c-2.8,0-5.1-2.3-5.1-5.1V363.6z M514.7,381.9c5.1,0,8.1-3,8.1-7v-0.1
				c0-4.6-3.2-7-8.3-7h-7.9v14.1H514.7z"/>
			<path id="XMLID_1270_" class="st0" d="M534.7,398.2l16.1-36.4c1.1-2.5,3.2-4,5.9-4h0.6c2.8,0,4.8,1.5,5.9,4l16.1,36.4
				c0.3,0.7,0.5,1.4,0.5,2.1c0,2.7-2.1,4.9-4.8,4.9c-2.4,0-4-1.4-4.9-3.5l-3.1-7.3h-20.4l-3.2,7.6c-0.9,2-2.6,3.2-4.7,3.2
				c-2.7,0-4.7-2.1-4.7-4.8C534.1,399.7,534.4,399,534.7,398.2z M563.3,385.4l-6.4-15.3l-6.4,15.3H563.3z"/>
			<path id="XMLID_1267_" class="st0" d="M587.9,363.6c0-2.8,2.2-5.1,5.1-5.1H609c5.9,0,10.4,1.7,13.5,4.7c2.6,2.6,4,6.2,4,10.6v0.1
				c0,7.3-3.6,11.8-9.2,14.1l7.1,8.6c1,1.2,1.7,2.3,1.7,3.9c0,2.8-2.4,4.7-4.8,4.7c-2.3,0-3.8-1.1-5-2.7l-9.9-12.5h-8.1v10.1
				c0,2.8-2.2,5.1-5.1,5.1c-2.8,0-5.1-2.3-5.1-5.1V363.6z M608.4,381c5,0,7.8-2.6,7.8-6.5v-0.1c0-4.4-3-6.6-8-6.6h-10.1V381H608.4z"
				/>
			<path id="XMLID_1264_" class="st0" d="M633.1,398.2l16.1-36.4c1.1-2.5,3.2-4,5.9-4h0.6c2.8,0,4.8,1.5,5.9,4l16.1,36.4
				c0.3,0.7,0.5,1.4,0.5,2.1c0,2.7-2.1,4.9-4.8,4.9c-2.4,0-4-1.4-4.9-3.5l-3.1-7.3h-20.3l-3.2,7.6c-0.9,2-2.6,3.2-4.7,3.2
				c-2.6,0-4.7-2.1-4.7-4.8C632.5,399.7,632.7,399,633.1,398.2z M661.7,385.4l-6.4-15.3l-6.4,15.3H661.7z"/>
			<path id="XMLID_1262_" class="st0" d="M716.8,367.9h-9.8c-2.6,0-4.7-2.1-4.7-4.7c0-2.6,2.1-4.7,4.7-4.7h29.7
				c2.6,0,4.7,2.1,4.7,4.7c0,2.6-2.1,4.7-4.7,4.7H727v32.2c0,2.8-2.2,5.1-5.1,5.1c-2.8,0-5.1-2.3-5.1-5.1V367.9z"/>
			<path id="XMLID_1259_" class="st0" d="M744.8,381.8v-0.1c0-13.1,10.4-23.9,24.6-23.9c14.3,0,24.5,10.6,24.5,23.8v0.1
				c0,13.1-10.4,23.9-24.6,23.9C755.1,405.6,744.8,394.9,744.8,381.8z M783.4,381.8v-0.1c0-7.9-5.8-14.5-14-14.5
				c-8.2,0-13.9,6.5-13.9,14.4v0.1c0,7.9,5.8,14.5,14,14.5C777.7,396.2,783.4,389.7,783.4,381.8z"/>
			<path id="XMLID_1256_" class="st0" d="M803,363.6c0-2.8,2.2-5.1,5.1-5.1h13c14.5,0,24.6,10,24.6,23v0.1c0,13-10,23.1-24.6,23.1
				h-13c-2.8,0-5.1-2.2-5.1-5.1V363.6z M821.1,395.6c8.3,0,13.9-5.6,13.9-13.8v-0.1c0-8.2-5.6-13.9-13.9-13.9h-7.9v27.9H821.1z"/>
			<path id="XMLID_1253_" class="st0" d="M852.7,381.8v-0.1c0-13.1,10.4-23.9,24.6-23.9c14.3,0,24.5,10.6,24.5,23.8v0.1
				c0,13.1-10.4,23.9-24.6,23.9C862.9,405.6,852.7,394.9,852.7,381.8z M891.2,381.8v-0.1c0-7.9-5.8-14.5-14-14.5
				c-8.2,0-13.9,6.5-13.9,14.4v0.1c0,7.9,5.8,14.5,14,14.5C885.5,396.2,891.2,389.7,891.2,381.8z"/>
			<path id="XMLID_1251_" class="st0" d="M909.6,399.9c-1.1-0.8-1.9-2.2-1.9-3.8c0-2.6,2.1-4.7,4.8-4.7c1.3,0,2.2,0.5,2.9,0.9
				c3.5,2.6,7.3,4.2,11.8,4.2c4.2,0,6.7-1.7,6.7-4.4V392c0-2.6-1.6-3.9-9.3-5.9c-9.3-2.4-15.3-5-15.3-14.1v-0.1
				c0-8.4,6.7-13.9,16.2-13.9c5.6,0,10.5,1.5,14.7,4.1c1.1,0.7,2.2,2,2.2,4c0,2.6-2.1,4.7-4.8,4.7c-1,0-1.8-0.3-2.6-0.7
				c-3.4-2-6.5-3.1-9.7-3.1c-3.9,0-6,1.8-6,4v0.1c0,3,2,4,10,6.1c9.4,2.4,14.7,5.8,14.7,13.9v0.1c0,9.2-7,14.3-17,14.3
				C920.9,405.4,914.8,403.6,909.6,399.9z"/>
		</g>
	</g>
	<rect id="XMLID_1248_" x="416.5" y="75.3" class="st0" width="5.9" height="329.8"/>
	<g id="XMLID_1023_">
		<g id="XMLID_1024_">
			<g id="XMLID_3_">
				<g id="XMLID_59_">
					<path id="XMLID_60_" class="st1" d="M81.6,75.3c30.3,16.1,67.4,16.1,97.8,0.2c30.6,15.7,67.3,15.9,97.8-0.2v175.2
						c0,21.4-17.9,38.5-39.8,38.5c-21.1,0-39.8,3.1-58,14.6c-18.2-11.7-37-14.6-58.2-14.6c-21.9,0-39.6-17-39.6-38.5V75.3z"/>
				</g>
				<g id="XMLID_57_">
					<path id="XMLID_58_" class="st2" d="M115,232.6c0,14,10.7,25.4,25.5,25.4c14.4,0,26.3,1.6,38.8,9.4c12.4-7.8,24.2-9.4,38.5-9.4
						c14.8,0,27.3-11.4,27.3-25.4l0.1-117.8c-15.9,8.3-50,2.8-65.2-5.1c-15,7.8-49.5,13.5-65.2,5.1"/>
				</g>
				<g id="XMLID_47_">
					<path id="XMLID_48_" class="st3" d="M195.1,228.8c-0.3,2.9,0.5,5.8,2.7,8.2c2,2.4,4.7,3.6,7.4,3.6c0.2-2.9-0.7-6-2.7-8.4
						C200.3,230,197.6,228.8,195.1,228.8 M232.9,206.4c0.7-1.2,4-2.1,5.5,0l0.5-0.5c0,0-1.2-3.4-3.7-2.9c0,0,1.5-4.1,0.7-4.5
						c-0.7-0.3-3.7,2.9-3.7,2.9c-0.8-2.4-4.5-2.4-4.5-2.4v1c2.5,0.2,3,3.6,2.2,4.8C229.7,205.5,232.4,207.2,232.9,206.4z M229.9,217
						c2.7-4.3,2.7-9.1,0.5-10.3c-2.2-1.2-6.5,1-9.2,5.3c-3,4.1-2.3,7.7,0,8.9C223.4,222.3,226.9,221.3,229.9,217z M163.7,228.8
						c0.3,2.9-0.5,5.8-2.7,8.2c-2,2.4-4.7,3.6-7.5,3.6c-0.2-2.9,0.8-6,2.7-8.4C158.5,230,161.2,228.8,163.7,228.8z M125.9,206.4
						c-0.7-1.2-4-2.1-5.5,0l-0.5-0.5c0,0,1.2-3.4,3.7-2.9c0,0-1.5-4.1-0.7-4.5c0.7-0.3,3.7,2.9,3.7,2.9c0.7-2.4,4.5-2.4,4.5-2.4v1
						c-2.5,0.2-3,3.6-2.2,4.8C129.1,205.5,126.4,207.2,125.9,206.4z M128.9,217c-2.7-4.3-2.7-9.1-0.5-10.3c2.2-1.2,6.4,1,9.2,5.3
						c3,4.1,2.2,7.7,0,8.9C135.4,222.3,131.9,221.3,128.9,217z M149,248.7c-1-4.7,1.6-15.2-10.3-23.5c-6.8,7.8-9.9,1.9-9.9,1.9
						c1.8-0.7,6.2-1.7,8.4-5.1c-5.5,3.1-11.5,2.2-14.1-1.9c-2.7-4.3-0.5-10.6,5-13.9c5.5-3.4,12.2-2.6,14.9,1.7
						c2.7,4.2,0.6,9.9-4.5,13.3c3.7,0.3,8.4-4.7,8.4-4.7c2.1,3.9-1.7,6-4.7,7.1c11.7,8,11.7,21.8,12.4,25.3L149,248.7z M209.7,248.7
						c1-4.7-1.6-15.2,10.3-23.5c6.8,7.8,9.8,1.9,9.8,1.9c-1.8-0.7-6.1-1.7-8.4-5.1c5.5,3.1,11.5,2.2,14.1-1.9
						c2.7-4.3,0.5-10.6-5-13.9c-5.5-3.4-12.2-2.6-14.9,1.7c-2.7,4.2-0.7,9.9,4.5,13.3c-3.7,0.3-8.5-4.7-8.5-4.7
						c-2.1,3.9,1.7,6,4.7,7.1c-11.6,8-11.7,21.8-12.4,25.3L209.7,248.7z"/>
				</g>
				<g id="XMLID_42_">
					<path id="XMLID_43_" class="st4" d="M173.4,137.1c0-1.4,1-2.4,2.5-2.4c1.3,0,2.2,1,2.2,2.4c0,1.2-1,2.2-2.2,2.2
						C174.4,139.3,173.4,138.3,173.4,137.1 M184.8,129.9l5-7.7l-7.7,2.9l-2.7-6.9l-3,6.9l-8-2.9l5.2,7.7H184.8z M187.7,200.1
						c-4.1-3.1,0.5-4.5,1.6-3.5c10.2,8.7,19.4,2.7,19.4,2.7c-7.2-2.4-10.7-10.6-10.7-10.6c14.9,8.6,26.4-1.2,26.4-1.2
						c-9.9,1.7-17.7-7.7-17.7-7.7c15.4,3.6,26.1-6.7,26.1-6.7c-5.7,0.5-19.9-5.5-19.9-5.5c22.6-0.7,24.6-16.8,24.9-16.8
						c-6.2,4.1-22.9,2.2-22.9,2.2c23.6-8.4,21.9-27.8,21.9-27.8c-5,7.4-27.8,14.6-27.8,14.6c-6.2,1.9-11.2,7.4-11.2,13.9
						c-0.3,2.7-2.7,4.8-5.5,4.8c-6.1,0-6-8.8-6-13c0-6.2-0.2-13.4-4.7-13.4h-8.9c-1.6,0-4.4-0.2-5.6,1.2c-2.3,2.7-2,9.8-0.9,8.4
						c0,0,3.5-0.9,5.7,0c2.9,0.8,0.8,9.8,0.8,11.8c0,2.6-2.5,5-5.5,5c-2.7,0-5.2-2.2-5.5-4.8c0-6.5-5-12-10.9-13.9
						c0,0-23.4-7.2-28.4-14.6c0,0-1.7,19.7,22.1,28.3c0,0-16.9,1.4-23.1-2.7c0.2,0,3.2,16.8,25.9,17.5c0,0-14.9,5-20.4,4.3
						c0,0,10.7,12.2,26.6,8.6c0,0-8.7,7.9-18.7,6.2c0,0,11.2,10.1,26.4,1.7c0,0-3.2,7.7-10.5,10.1c0,0,9.2,6,19.7-2.7
						c1.3-1.5,5.6,0.2,1.3,3.5c-5.7,4.3-13.8,5.4-17.2,12.6l4.2,0.8c-4.7,4.8-11,11.5-11.7,11.7c0,0-1.5-2.2-6.2,0.2
						c-2.5,1.2-3.7,4.3-2,5.5c0,0-0.8,3.8,3.7,3.6c0,0,1.7,3.1,5.5,0.7c3.5-2.4-0.3-1.7-0.8-2.6c-0.5-0.7,0.3-0.5,0.3-0.5
						c1.7-0.3,4-2.2,2.5-3.8c-0.2-0.3,8.1-5.5,14.2-9.2l0.8,3.9c2.1-2.8,5.2-4.7,8.6-5.7c-3.7,5.1-6,11-4.7,19.2c0,0,1-3.1,6-3.6
						c0,0-7,8.4,4.2,24.7c11.2-16.3,4.7-24.7,4.7-24.7c5,0.5,6.2,3.6,6.2,3.6c1.1-8.3-1-14.2-5-19.4c3.6,1,6.5,3,8.7,5.9l0.8-4
						c6,3.7,14.3,8.9,14.1,9.3c-1.5,1.7,1,3.6,2.5,3.8c0,0,0.5-0.3,0.3,0.5c-0.5,1-4.2,0.2-0.8,2.6c3.5,2.4,5.5-0.7,5.5-0.7
						c4.5,0.3,3.8-3.6,3.8-3.6c1.7-1.2,0.5-4.3-2.3-5.5c-4.7-2.4-6.2-0.2-6.2-0.2c-0.5-0.2-6.7-6.9-11.4-11.7l4.1-0.8
						C201.2,205.8,193.1,204.3,187.7,200.1z"/>
				</g>
				<g id="XMLID_4_">
					<g id="XMLID_5_">
						<path id="XMLID_39_" class="st5" d="M97.4,124.3c-3.4,1.2-6.9-0.2-8.9-0.6c0,0-0.6,5.5,7.8,3.7c-0.4,4.4,2.2,7.6,3.4,11.9
							c-0.6-0.7-1.3-1.4-2.2-2c-2.5-1.4-5.5-1.9-8.2-1.4c0.2,2.2,1.5,4.5,4,6c2.1,1.4,4.6,2,7,1.8c-0.1,2.1-0.7,4.5-2,7.3l4,3.1
							c2-3.8,2.5-12.7-0.5-18.9c-2-4.3-2.4-5.9-2.2-7.5c2.7,1,8.2,2.3,8.9-2.3c0,0-6.1,1-8.9-1c5.5-0.2,10.2-3.4,10.7-7.7
							c0.2-4.6-4.2-8.6-10.2-8.9c-5.9-0.5-11.2,2.9-11.7,7.4C88,119.6,92,123.5,97.4,124.3z M100,108.1c2.2,0.2,4,4.1,3.7,8.9
							c-0.2,4.6-2.7,7-5,6.7c-2.5-0.2-4.5-2.9-4.2-7.5C94.8,111.5,97.5,107.9,100,108.1z"/>
						<path id="XMLID_38_" class="st5" d="M188,103.1c-1.5,1.7,0.3,4.3,0.3,4.3h0.7c-0.7-2.4,1.5-4.3,3-4.3c0.7,0,0.7-2.9,0-2.9
							c-1.3,0-3.7-1.9-2.5-4.1l-0.8-0.3c0,0-2,2.6-0.5,4.3c0,0-4.2,0.7-4.2,1.4C184,102.3,188,103.1,188,103.1z"/>
						<path id="XMLID_37_" class="st5" d="M98.5,106.2c0,0.7,3,1,3.2,0.2c0-1.2,2.2-3.3,4.5-2.4l0.3-0.5c0,0-2.5-2.2-4.5-0.7
							c0,0-0.5-3.8-1.2-3.8c-0.7-0.2-2,3.6-2,3.6c-1.5-1.4-4.5,0.2-4.5,0.2l0.2,0.7C96.7,102.6,98.5,105,98.5,106.2z"/>
						<path id="XMLID_36_" class="st5" d="M258.3,106.4c0,0.7,3.2,0.5,3.2-0.2c-0.2-1.2,1.8-3.6,4-2.6l0.3-0.7c0,0-3-1.7-4.5-0.2
							c0,0-1.2-3.8-2-3.6c-0.8,0-1.3,3.8-1.3,3.8c-2-1.4-4.5,0.7-4.5,0.7l0.3,0.5C256.1,103.1,258.3,105.2,258.3,106.4z"/>
						<path id="XMLID_35_" class="st5" d="M261.9,177c0-1.2,2.2-3.4,4.5-2.4l0.3-0.7c0,0-2.5-1.9-4.5-0.5c0,0-0.5-3.8-1.3-3.8
							c-0.7-0.3-2,3.6-2,3.6c-1.5-1.4-4.5,0.2-4.5,0.2l0.2,0.7c2.2-1,4.2,1.4,4,2.6C258.6,177.4,261.9,177.7,261.9,177z"/>
						<path id="XMLID_32_" class="st5" d="M260.5,124.4c-2.8,1.9-8.9,1-8.9,1c0.7,4.6,6.2,3.3,8.9,2.3c0.2,1.6-0.1,3.3-2.2,7.5
							c-3.2,6.2-2.5,15.1-0.5,18.9l4-3.1c-1.4-2.8-2-5.2-2.1-7.3c2.4,0.2,4.9-0.4,7.1-1.8c2.2-1.5,3.7-3.8,4-6
							c-2.7-0.5-5.7,0-8.2,1.4c-1.1,0.7-1.9,1.5-2.5,2.3c1.1-4.5,3.9-7.8,3.6-12.3c8.6,1.8,7.9-3.7,7.9-3.7c-2,0.4-5.5,1.8-8.9,0.6
							c5.4-0.8,9.4-4.7,9.1-9c-0.5-4.5-5.7-7.9-11.7-7.4c-6,0.2-10.4,4.3-10.2,8.9C250.3,121,255,124.3,260.5,124.4z M260,108.1
							c2.5-0.2,5.2,3.4,5.5,8.2c0.3,4.6-2,7.2-4.2,7.5c-2.5,0.2-5-2.2-5.2-6.7C255.8,112.2,257.8,108.3,260,108.1z"/>
						<path id="XMLID_31_" class="st5" d="M105.3,174.1l0.2-0.7c0,0-3-1.7-4.5-0.2c0,0-1.2-3.8-2-3.6c-0.7,0-1.2,3.8-1.2,3.8
							c-2-1.4-4.5,0.5-4.5,0.5l0.2,0.7c2.2-0.9,4.5,1.2,4.5,2.4c0.2,0.7,3.2,0.5,3.2-0.3C101,175.5,103,173.1,105.3,174.1z"/>
						<path id="XMLID_30_" class="st5" d="M167.6,103.1c1.5,0,3.7,1.9,3,4.3h0.7c0,0,1.7-2.7,0.3-4.3c0,0,4-0.7,4-1.4
							c0-0.7-4.2-1.4-4.2-1.4c1.5-1.7-0.5-4.3-0.5-4.3l-0.7,0.3c1.3,2.2-1.2,4.1-2.5,4.1C166.9,100.2,166.9,103.1,167.6,103.1z"/>
						<path id="XMLID_27_" class="st5" d="M97.6,224.7l4-3.1c-5.7-11.9,2.6-16.1,1.9-23.6c8.5,1.8,7.8-3.8,7.8-3.8
							c-2.1,0.4-5.8,1.9-9.3,0.4c5.6-0.5,9.8-4.4,9.6-8.8c-0.5-4.6-5.7-7.9-11.7-7.7c-6,0.5-10.4,4.6-10.2,9.1
							c0.5,4.4,5.3,7.6,10.9,7.5c-2.7,2.2-9.2,1.1-9.2,1.1c0.8,4.6,6.2,3.3,8.9,2.3c0.2,1.6-0.2,3.3-2.2,7.5
							c-0.4,0.7-0.7,1.5-0.9,2.3c-0.2-1.6-1.1-3.1-2.6-4.2c-2-1.9-4.7-2.9-7.5-2.7c-0.5,2.2,0.2,4.6,2.2,6.5
							c1.9,1.8,4.6,2.7,7.2,2.6C95.4,215.8,96,221.7,97.6,224.7z M96.1,187.5c-0.3-4.8,1.5-8.6,3.7-8.9c2.5-0.2,5.2,3.4,5.5,8.2
							c0.2,4.6-1.7,7.2-4.2,7.5C98.8,194.5,96.3,192.1,96.1,187.5z"/>
						<path id="XMLID_26_" class="st5" d="M98.2,247.3c0.2,0.5,3-1.2,2.5-1.7c-0.7-1.2-0.2-4.1,2.2-4.6l-0.3-0.7c0,0-3.2,0-4,2.2
							c0,0-2.7-2.9-3.5-2.4c-0.7,0.5,1,4.1,1,4.1c-2.5-0.5-3.7,2.6-3.7,2.6l0.5,0.5C94.5,245.1,97.5,246.1,98.2,247.3z"/>
						<path id="XMLID_25_" class="st5" d="M263.8,244.2c0,0,1.5-3.6,1-4.1c-0.7-0.5-3.5,2.4-3.5,2.4c-0.8-2.2-4-2.2-4-2.2l-0.2,0.7
							c2.5,0.5,2.8,3.4,2,4.6c-0.3,0.5,2.5,2.2,2.7,1.7c0.8-1.2,3.7-2.1,5,0l0.7-0.5C267.5,246.8,266.3,243.7,263.8,244.2z"/>
						<path id="XMLID_22_" class="st5" d="M241.3,107.9l-3-4.1c-3,1.1-5.5,1.4-7.7,1.4c0.4-2.2,0.1-4.6-1.2-6.9
							c-1.3-2.4-3.5-3.8-6-4.3c-0.8,2.6-0.5,5.5,1,7.9c0.5,1,1.2,1.9,2,2.6c-4.4-1.4-7.5-4.2-11.9-4.4c2.2-8-3.5-7.8-3.5-7.8
							c0.2,1.8,1.5,5.6-0.2,8.8c-0.1-5.4-3.7-9.8-8.2-9.8c-5,0-8.9,4.6-8.9,10.3c-0.2,5.8,3.5,10.6,8.2,10.6c4.8,0,8.7-4.3,8.9-9.8
							c2,2.7,0.5,8.8,0.5,8.8c4.6-0.2,3.8-5.7,3.1-8.3c1.6,0.1,3.4,0.6,7.3,2.8C227.8,109.3,237.1,109.3,241.3,107.9z M202.4,106.2
							c-4.7-0.2-8.4-2.2-8.7-4.6c0-2.1,4-4.6,8.9-4.6c4.7,0.3,7.2,2.6,7.2,4.8C210.2,104.3,207.4,106.4,202.4,106.2z"/>
						<path id="XMLID_19_" class="st5" d="M273.1,201.2c-3-0.2-5.7,0.7-7.7,2.7c-1.3,1.1-2.2,2.7-2.5,4.2c-0.3-0.8-0.6-1.5-1-2.3
							c-2-4.3-2.4-5.9-2.2-7.5c2.7,1,8.2,2.3,8.9-2.3c0,0-6.5,1-9.2-1.1c5.6,0.1,10.5-3.1,10.9-7.5c0.2-4.6-4.2-8.6-10.2-9.1
							c-6-0.2-11.2,3.1-11.7,7.7c-0.3,4.4,3.9,8.3,9.6,8.8c-3.5,1.5-7.2,0-9.1-0.4c0,0-0.9,5.5,7.6,3.7c-0.5,7.5,7.8,11.7,1.9,23.6
							l3.9,3.1c1.6-2.9,2.4-8.9,1.1-14.4c2.6,0.1,5.3-0.9,7.1-2.6C272.6,205.7,273.3,203.3,273.1,201.2z M254.7,186.8
							c0.2-4.8,3-8.4,5.5-8.2c2.2,0.2,4.2,4.1,4,8.9c-0.2,4.6-2.7,7-5.2,6.7C256.7,194,254.4,191.3,254.7,186.8z"/>
						<path id="XMLID_16_" class="st5" d="M259.9,247.5c-5-3.1-11.2-2.6-13.7,1.2c-2.6,3.7-0.9,9.2,3.7,12.4
							c-3.5,0.1-7.9-4.2-7.9-4.2c-2.2,4,3,6,5.7,6.8c-0.8,1.5-2.2,2.6-6.5,4.7c-6.4,3.1-11.4,10.6-12.4,14.9l5.2-0.2
							c0.6-3,1.7-5.2,2.9-6.9c1.8,1.5,4,2.4,6.6,2.6c3,0.2,5.5-1,7.2-2.6c-2-1.9-4.5-3.4-7.5-3.4c-1.2-0.1-2.3,0-3.3,0.3
							c3.6-2.8,7.8-3.8,10.4-7.6c5.7,6.2,8.5,1.3,8.5,1.3c-1.8-0.7-5.7-1.7-7.7-4.8c5,2.8,10.6,2,13.2-1.7
							C266.8,256.4,264.8,250.6,259.9,247.5z M258.8,257.3c-2.7,3.8-6,4.8-8,3.6c-2.2-1.2-2.7-4.5,0-8.4c2.7-3.8,6.7-5.8,8.7-4.6
							C261.6,249.2,261.6,253.5,258.8,257.3z"/>
						<path id="XMLID_13_" class="st5" d="M118.9,268.4c-4.2-2.1-5.6-3.2-6.4-4.7c2.7-0.8,7.9-2.9,5.7-6.8c0,0-4.7,4.5-8.1,4.2
							c4.8-3.2,6.5-8.6,3.9-12.3c-2.5-3.8-8.7-4.3-13.7-1.2c-5,3.1-7,8.9-4.5,12.7c2.7,3.8,8.4,4.5,13.3,1.4c-1.9,3.3-6,4.4-7.8,5
							c0,0,2.8,4.9,8.6-1.3c2.6,3.8,6.8,4.8,10.4,7.6c-1-0.3-2.1-0.4-3.3-0.3c-3,0-5.7,1.5-7.5,3.4c1.5,1.7,4.2,2.9,7.2,2.6
							c2.3-0.2,4.7-1.1,6.6-2.6c1.2,1.7,2.2,3.9,2.9,6.9l5.2,0.2C130.3,278.9,125.3,271.5,118.9,268.4z M109.2,260.9
							c-2,1.2-5.2,0.3-8-3.6c-2.7-3.8-2.7-8.2-0.7-9.4c2-1.2,6,0.7,8.7,4.6C111.6,256.4,111.1,259.8,109.2,260.9z"/>
						<path id="XMLID_10_" class="st5" d="M157.9,112.2c4.7,0,8.5-4.8,8.2-10.6c0-5.8-4-10.3-9-10.3c-4.5,0-8.1,4.4-8.2,9.8
							c-1.8-3.2-0.5-7-0.2-8.8c0,0-5.7-0.2-3.5,7.8c-4.5,0.2-7.6,3-11.9,4.4c0.8-0.7,1.5-1.6,2-2.6c1.5-2.4,1.7-5.3,1-7.9
							c-2.5,0.5-4.7,1.9-6,4.3c-1.3,2.3-1.6,4.7-1.2,6.9c-2.2,0.1-4.7-0.3-7.7-1.4l-3,4.1c4.2,1.4,13.4,1.4,19.6-2.2
							c4-2.1,5.8-2.7,7.3-2.8c-0.6,2.6-1.4,8.1,3.1,8.3c0,0-1.5-6.1,0.5-8.8C149.2,107.9,153.1,112.2,157.9,112.2z M149.7,101.9
							c0-2.2,2.5-4.5,7.2-4.8c5,0,9,2.4,9,4.6c-0.2,2.4-4,4.3-8.7,4.6C152.2,106.4,149.4,104.3,149.7,101.9z"/>
						<path id="XMLID_7_" class="st5" d="M187.7,280.9c-4.4,1.2-6.3,1.3-7.9,0.9c1.3-2.4,3.4-7.3-1.3-8.5c0,0,0.2,6-2.3,8.2
							c0.8-5.4-1.9-10.2-6.4-11.3c-4.7-1-9.4,2.9-10.7,8.6c-1,5.5,1.7,10.8,6.5,12c4.6,0.9,9.1-2.6,10.3-7.8
							c0.9,3.5-1.2,6.8-1.9,8.5c0,0,5.7,1.7,5.2-6.5c4.5,0.9,8.3-1.2,12.9-1.8c-0.9,0.5-1.8,1.1-2.6,1.8c-1.8,2.2-2.8,5.1-2.8,7.7
							c2.5,0,5-1,7-3.1c1.7-1.6,2.7-4,2.8-6.3c2.2,0.4,4.5,1.2,7.2,2.9l4-3.4C203.8,280.4,194.6,278.7,187.7,280.9z M175.5,281.8
							c-0.5,2.4-3.7,4.1-8.5,3.1c-4.7-0.9-8-4.1-7.5-6.2c0.5-2.2,4.7-3.4,9.7-2.6C174,277,176,279.7,175.5,281.8z"/>
						<path id="XMLID_6_" class="st5" d="M158,276.8c-1.2-0.3-3.2-2.6-1.7-4.6l-0.8-0.5c0,0-2.5,2.1-1.2,4.3c0,0-4,0-4.2,0.5
							c-0.2,0.7,3.7,2.4,3.7,2.4c-2,1.4-0.7,4.3-0.7,4.3h0.7c-0.5-2.4,2.2-3.8,3.7-3.6C158,279.9,158.8,277,158,276.8z"/>
					</g>
				</g>
			</g>
			<g id="XMLID_1066_">
				<g id="XMLID_1118_">
					<g id="XMLID_1243_">
						<g id="XMLID_1244_">
							<path id="XMLID_1245_" class="st0" d="M43.1,357.3h-6.2l-2.4-6.4H23.3l-2.3,6.4h-6l10.9-28h6L43.1,357.3z M32.6,346.1
								l-3.9-10.3L25,346.1H32.6z"/>
						</g>
					</g>
					<g id="XMLID_1240_">
						<g id="XMLID_1241_">
							<polygon id="XMLID_1242_" class="st0" points="44.6,357.3 44.6,329.5 50.3,329.5 50.3,352.5 64.3,352.5 64.3,357.3 							
								"/>
						</g>
					</g>
					<g id="XMLID_1237_">
						<g id="XMLID_1238_">
							<path id="XMLID_1239_" class="st0" d="M84.7,346.9l5.5,1.8c-0.8,3.1-2.2,5.3-4.2,6.9c-2,1.5-4.5,2.2-7.5,2.2
								c-3.7,0-6.8-1.3-9.2-3.8c-2.4-2.5-3.6-6-3.6-10.4c0-4.7,1.2-8.3,3.6-10.8c2.4-2.6,5.6-3.9,9.5-3.9c3.4,0,6.2,1,8.4,3
								c1.3,1.2,2.2,2.9,2.9,5.2l-5.6,1.3c-0.3-1.4-1-2.6-2.1-3.4c-1.1-0.9-2.3-1.3-3.8-1.3c-2.1,0-3.8,0.8-5.1,2.2
								c-1.3,1.5-1.9,3.9-1.9,7.2c0,3.5,0.7,6.1,1.9,7.6c1.3,1.5,2.9,2.3,5,2.3c1.5,0,2.8-0.5,3.9-1.4
								C83.4,350.5,84.2,349,84.7,346.9"/>
						</g>
					</g>
					<g id="XMLID_1232_">
						<g id="XMLID_1233_">
							<path id="XMLID_1234_" class="st0" d="M118.7,357.3h-6.2l-2.5-6.4H98.8l-2.3,6.4h-6l10.9-28h6L118.7,357.3z M108.2,346.1
								l-3.9-10.3l-3.8,10.3H108.2z"/>
						</g>
					</g>
					<g id="XMLID_1229_">
						<g id="XMLID_1230_">
							<polygon id="XMLID_1231_" class="st0" points="120.2,357.3 120.2,329.5 125.8,329.5 125.8,352.5 139.9,352.5 139.9,357.3 
															"/>
						</g>
					</g>
					<g id="XMLID_1224_">
						<g id="XMLID_1225_">
							<path id="XMLID_1226_" class="st0" d="M142.3,329.2h10.3c2.3,0,4.1,0.2,5.3,0.5c1.6,0.5,3.1,1.3,4.2,2.6
								c1.2,1.2,2.1,2.8,2.7,4.5c0.6,1.8,0.9,4,0.9,6.6c0,2.3-0.3,4.3-0.9,6c-0.7,2.1-1.7,3.7-3,5c-1,1-2.3,1.7-4,2.2
								c-1.2,0.4-2.9,0.6-5,0.6h-10.7V329.2z M147.9,334v18.5h4.2c1.6,0,2.7-0.1,3.4-0.3c0.9-0.2,1.7-0.6,2.3-1.1
								c0.6-0.6,1.1-1.5,1.5-2.7c0.4-1.3,0.6-3,0.6-5.1c0-2.2-0.2-3.8-0.6-5c-0.4-1.1-0.9-2.1-1.6-2.7c-0.7-0.6-1.6-1.1-2.6-1.3
								c-0.8-0.1-2.4-0.2-4.7-0.2H147.9z"/>
						</g>
					</g>
					<g id="XMLID_1219_">
						<g id="XMLID_1220_">
							<path id="XMLID_1221_" class="st0" d="M170.2,326.7l2.6-5.7h6l-5.2,5.7H170.2z M168.8,329.2h5.7v28h-5.7V329.2z"/>
						</g>
					</g>
					<g id="XMLID_1214_">
						<g id="XMLID_1215_">
							<path id="XMLID_1216_" class="st0" d="M203.5,357.3h-6.2l-2.4-6.4h-11.2l-2.3,6.4h-6l10.9-28h6L203.5,357.3z M193.1,346.1
								l-3.9-10.3l-3.8,10.3H193.1z"/>
						</g>
					</g>
					<g id="XMLID_1211_">
						<g id="XMLID_1212_">
							<polygon id="XMLID_1213_" class="st0" points="212.5,357.3 212.5,329.2 221,329.2 226.1,348.4 231.1,329.2 239.6,329.2 
								239.6,357.3 234.4,357.3 234.3,335.2 228.8,357.3 223.3,357.3 217.8,335.2 217.8,357.3 							"/>
						</g>
					</g>
					<g id="XMLID_1132_">
						<g id="XMLID_1133_">
							<path id="XMLID_1134_" class="st0" d="M268.9,357.3h-6.2l-2.4-6.4h-11.2l-2.3,6.4h-6l10.9-28h6.1L268.9,357.3z M258.5,346.1
								l-3.9-10.3l-3.8,10.3H258.5z"/>
						</g>
					</g>
					<g id="XMLID_1129_">
						<g id="XMLID_1130_">
							<polygon id="XMLID_1131_" class="st0" points="274,357.3 274,345.5 263.7,329.2 270.4,329.2 277,340.3 283.5,329.2 
								290,329.2 279.7,345.5 279.7,357.3 							"/>
						</g>
					</g>
					<g id="XMLID_1124_">
						<g id="XMLID_1125_">
							<path id="XMLID_1126_" class="st0" d="M290,343.4c0-2.9,0.4-5.3,1.3-7.2c0.7-1.4,1.5-2.7,2.6-3.8c1.1-1.1,2.4-2,3.6-2.5
								c1.7-0.7,3.8-1.1,6-1.1c4.1,0,7.4,1.3,9.9,3.8c2.5,2.6,3.7,6.1,3.7,10.7c0,4.5-1.2,8.1-3.7,10.6c-2.5,2.6-5.8,3.8-9.9,3.8
								c-4.2,0-7.5-1.3-10-3.8C291.2,351.4,290,347.9,290,343.4 M295.8,343.3c0,3.2,0.7,5.6,2.2,7.2c1.5,1.6,3.3,2.5,5.6,2.5
								c2.2,0,4.1-0.8,5.5-2.4c1.5-1.6,2.2-4.1,2.2-7.3c0-3.2-0.7-5.6-2.1-7.2c-1.4-1.6-3.3-2.4-5.6-2.4c-2.3,0-4.2,0.8-5.7,2.4
								C296.5,337.6,295.8,340,295.8,343.3z"/>
						</g>
					</g>
					<g id="XMLID_1119_">
						<g id="XMLID_1120_">
							<path id="XMLID_1121_" class="st0" d="M320,357.3v-28h11.9c3,0,5.2,0.2,6.5,0.8c1.4,0.5,2.5,1.4,3.2,2.7
								c0.8,1.3,1.2,2.8,1.2,4.4c0,2.1-0.6,3.8-1.8,5.2c-1.2,1.4-3.1,2.2-5.5,2.6c1.2,0.7,2.2,1.5,3,2.4c0.8,0.8,1.9,2.3,3.2,4.5
								l3.5,5.5h-6.8l-4.1-6.1c-1.5-2.2-2.5-3.5-3-4.1c-0.6-0.6-1.1-0.9-1.7-1.2c-0.7-0.2-1.6-0.3-2.9-0.3h-1.1v11.7H320z
								 M325.6,341.1h4.2c2.7,0,4.4-0.1,5.1-0.3c0.7-0.2,1.2-0.6,1.6-1.2c0.4-0.6,0.6-1.3,0.6-2.1c0-0.9-0.2-1.7-0.8-2.3
								c-0.5-0.6-1.2-1-2.1-1.1c-0.4-0.1-1.8-0.1-4.1-0.1h-4.4V341.1z"/>
						</g>
					</g>
				</g>
				<g id="XMLID_1067_">
					<g id="XMLID_1115_">
						<g id="XMLID_1116_">
							<rect id="XMLID_1117_" x="286.7" y="397.3" class="st0" width="5.3" height="5.3"/>
						</g>
					</g>
					<g id="XMLID_1110_">
						<g id="XMLID_1111_">
							<path id="XMLID_1112_" class="st0" d="M32.9,375h10.2c2.3,0,4,0.2,5.3,0.5c1.6,0.5,3,1.3,4.2,2.5c1.2,1.2,2,2.7,2.6,4.5
								c0.6,1.7,0.9,3.9,0.9,6.5c0,2.3-0.3,4.2-0.8,5.9c-0.7,2-1.7,3.6-2.9,4.9c-1,0.9-2.3,1.7-3.9,2.2c-1.2,0.4-2.9,0.6-4.9,0.6
								H32.9V375z M38.5,379.6v18.2h4.2c1.6,0,2.7-0.1,3.4-0.3c0.9-0.2,1.6-0.6,2.3-1.1c0.6-0.5,1.1-1.4,1.4-2.7
								c0.4-1.2,0.6-2.9,0.6-5c0-2.1-0.2-3.8-0.6-4.9c-0.4-1.1-0.9-2-1.6-2.7c-0.7-0.6-1.5-1.1-2.6-1.3c-0.8-0.2-2.3-0.3-4.6-0.3
								H38.5z"/>
						</g>
					</g>
					<g id="XMLID_1107_">
						<g id="XMLID_1108_">
							<polygon id="XMLID_1109_" class="st0" points="59.1,402.5 59.1,375 79.5,375 79.5,379.6 64.7,379.6 64.7,385.7 78.5,385.7 
								78.5,390.4 64.7,390.4 64.7,397.8 80.1,397.8 80.1,402.5 							"/>
						</g>
					</g>
					<g id="XMLID_1101_">
						<g id="XMLID_1102_">
							<path id="XMLID_1103_" class="st0" d="M92.3,375h11c2.2,0,3.8,0.1,4.9,0.3c1.1,0.2,2,0.6,2.9,1.1c0.9,0.6,1.5,1.3,2.1,2.3
								c0.6,1,0.8,2.1,0.8,3.2c0,1.3-0.3,2.5-1,3.6c-0.7,1.1-1.7,1.9-2.8,2.4c1.7,0.5,3,1.3,3.8,2.5c0.9,1.2,1.4,2.6,1.4,4.2
								c0,1.2-0.3,2.5-0.9,3.6c-0.6,1.2-1.4,2.1-2.4,2.8c-1,0.7-2.3,1.2-3.8,1.3c-0.9,0.1-3.2,0.2-6.7,0.2h-9.4V375z M97.8,379.5
								v6.4h3.6c2.2,0,3.5,0,4-0.1c1-0.1,1.7-0.4,2.2-1c0.5-0.5,0.8-1.2,0.8-2.1c0-0.8-0.2-1.5-0.7-2.1c-0.5-0.5-1.2-0.8-2.1-0.9
								c-0.6-0.1-2.1-0.1-4.7-0.1H97.8z M97.8,390.5v7.4h5.1c2,0,3.3-0.1,3.8-0.2c0.8-0.2,1.5-0.5,2-1.1c0.5-0.6,0.8-1.4,0.8-2.3
								c0-0.8-0.2-1.5-0.6-2.1c-0.4-0.6-1-1-1.7-1.3c-0.8-0.3-2.4-0.4-5-0.4H97.8z"/>
						</g>
					</g>
					<g id="XMLID_1096_">
						<g id="XMLID_1097_">
							<path id="XMLID_1098_" class="st0" d="M117.3,388.9c0-2.8,0.4-5.1,1.2-7c0.7-1.4,1.5-2.6,2.6-3.8c1.1-1.1,2.3-1.9,3.6-2.5
								c1.7-0.7,3.7-1.1,5.9-1.1c4.1,0,7.3,1.3,9.7,3.8c2.4,2.5,3.6,6,3.6,10.5c0,4.4-1.2,7.9-3.6,10.4c-2.4,2.5-5.6,3.8-9.7,3.8
								c-4.1,0-7.4-1.3-9.8-3.7C118.5,396.8,117.3,393.3,117.3,388.9 M123,388.7c0,3.1,0.7,5.5,2.2,7.1c1.4,1.6,3.3,2.4,5.5,2.4
								c2.2,0,4-0.8,5.5-2.4c1.4-1.6,2.1-4,2.1-7.2c0-3.1-0.7-5.5-2.1-7c-1.4-1.6-3.2-2.3-5.5-2.3c-2.3,0-4.1,0.8-5.5,2.4
								C123.7,383.2,123,385.6,123,388.7z"/>
						</g>
					</g>
					<g id="XMLID_1093_">
						<g id="XMLID_1094_">
							<path id="XMLID_1095_" class="st0" d="M159.6,392.4v-4.7h12v10.9c-1.2,1.1-2.8,2.1-5.1,3c-2.2,0.9-4.4,1.3-6.7,1.3
								c-2.9,0-5.4-0.6-7.5-1.8c-2.2-1.2-3.8-2.9-4.8-5.2c-1.1-2.3-1.6-4.7-1.6-7.3c0-2.9,0.6-5.4,1.8-7.6c1.2-2.2,2.9-3.9,5.3-5.1
								c1.7-0.9,4-1.4,6.6-1.4c3.4,0,6.1,0.7,8,2.1c1.9,1.4,3.1,3.4,3.7,6l-5.5,1.1c-0.4-1.4-1.1-2.4-2.2-3.2
								c-1.1-0.8-2.4-1.2-4-1.2c-2.4,0-4.3,0.8-5.8,2.3c-1.4,1.5-2.2,3.8-2.2,6.9c0,3.2,0.7,5.7,2.2,7.3c1.5,1.6,3.3,2.5,5.7,2.5
								c1.2,0,2.3-0.2,3.5-0.7c1.2-0.5,2.2-1,3-1.7v-3.4H159.6z"/>
						</g>
					</g>
					<g id="XMLID_1088_">
						<g id="XMLID_1089_">
							<path id="XMLID_1090_" class="st0" d="M173.9,388.9c0-2.8,0.4-5.1,1.2-7c0.6-1.4,1.5-2.6,2.6-3.8c1.1-1.1,2.3-1.9,3.6-2.5
								c1.7-0.7,3.7-1.1,6-1.1c4,0,7.3,1.3,9.7,3.8c2.4,2.5,3.6,6,3.6,10.5c0,4.4-1.2,7.9-3.6,10.4c-2.4,2.5-5.7,3.8-9.7,3.8
								c-4.1,0-7.4-1.3-9.8-3.7C175.2,396.8,173.9,393.3,173.9,388.9 M179.7,388.7c0,3.1,0.7,5.5,2.1,7.1c1.4,1.6,3.3,2.4,5.5,2.4
								c2.2,0,4-0.8,5.5-2.4c1.4-1.6,2.1-4,2.1-7.2c0-3.1-0.7-5.5-2-7c-1.4-1.6-3.3-2.3-5.6-2.3c-2.3,0-4.1,0.8-5.5,2.4
								C180.4,383.2,179.7,385.6,179.7,388.7z"/>
						</g>
					</g>
					<g id="XMLID_1085_">
						<g id="XMLID_1086_">
							<polygon id="XMLID_1087_" class="st0" points="209.6,402.5 209.6,379.6 201.5,379.6 201.5,375 223.4,375 223.4,379.6 
								215.2,379.6 215.2,402.5 							"/>
						</g>
					</g>
					<g id="XMLID_1079_">
						<g id="XMLID_1080_">
							<path id="XMLID_1081_" class="st0" d="M250.2,402.5h-6.1l-2.4-6.3h-11l-2.3,6.3h-5.9l10.7-27.6h5.9L250.2,402.5z
								 M239.9,391.6l-3.8-10.2l-3.7,10.2H239.9z M234.2,372.5l2.6-5.6h5.9l-5.1,5.6H234.2z"/>
						</g>
					</g>
					<g id="XMLID_1074_">
						<g id="XMLID_1075_">
							<path id="XMLID_1076_" class="st0" d="M260.5,375h10.2c2.3,0,4,0.2,5.2,0.5c1.6,0.5,3,1.3,4.1,2.5c1.1,1.2,2,2.7,2.6,4.5
								c0.6,1.7,0.9,3.9,0.9,6.5c0,2.3-0.3,4.2-0.8,5.9c-0.7,2-1.7,3.6-2.9,4.9c-1,0.9-2.3,1.7-3.9,2.2c-1.2,0.4-2.9,0.6-4.9,0.6
								h-10.5V375z M266.1,379.6v18.2h4.2c1.6,0,2.7-0.1,3.4-0.3c0.9-0.2,1.6-0.6,2.3-1.1c0.6-0.5,1.1-1.4,1.5-2.7
								c0.4-1.2,0.5-2.9,0.5-5c0-2.1-0.2-3.8-0.5-4.9c-0.4-1.1-0.9-2-1.6-2.7c-0.6-0.6-1.5-1.1-2.5-1.3c-0.8-0.2-2.3-0.3-4.6-0.3
								H266.1z"/>
						</g>
					</g>
					<g id="XMLID_1071_">
						<g id="XMLID_1072_">
							<path id="XMLID_1073_" class="st0" d="M313.5,392.3l5.4,1.7c-0.8,3-2.2,5.3-4.1,6.7c-1.9,1.4-4.4,2.2-7.3,2.2
								c-3.7,0-6.7-1.2-9-3.7c-2.4-2.5-3.6-5.9-3.6-10.3c0-4.6,1.2-8.1,3.6-10.7c2.4-2.5,5.5-3.8,9.3-3.8c3.4,0,6.1,1,8.2,3
								c1.2,1.2,2.2,2.9,2.8,5.1l-5.5,1.3c-0.3-1.4-1-2.6-2-3.4c-1-0.8-2.3-1.3-3.7-1.3c-2.1,0-3.7,0.7-5,2.2
								c-1.3,1.5-1.9,3.8-1.9,7.1c0,3.5,0.6,5.9,1.9,7.4c1.2,1.5,2.8,2.2,4.9,2.2c1.5,0,2.8-0.5,3.8-1.4
								C312.2,395.9,313,394.4,313.5,392.3"/>
						</g>
					</g>
					<g id="XMLID_1068_">
						<g id="XMLID_1069_">
							<rect id="XMLID_1070_" x="321.9" y="397.4" class="st0" width="5.3" height="5.3"/>
						</g>
					</g>
				</g>
			</g>
			<g id="XMLID_1025_">
				<path id="XMLID_1030_" class="st6" d="M179.4,74.7c-30.6,16-68,16-98.5-0.2V251c0,21.6,17.8,38.8,39.9,38.8
					c21.3,0,40.3,3,58.7,14.7c18.3-11.5,37.1-14.7,58.5-14.7c22,0,40.1-17.2,40.1-38.8V74.4C247.2,90.7,210.3,90.5,179.4,74.7z"/>
			</g>
		</g>
	</g>
</g>
</svg>
